<?xml version="1.0" encoding="UTF-8"?>
<svg version="1.1" xmlns="http://www.w3.org/2000/svg" width="500" height="500">
<path d="M0 0 C0.71671875 0.24121582 1.4334375 0.48243164 2.171875 0.73095703 C25.92050643 8.8499088 47.35164016 21.86979771 65.74609375 38.95703125 C67.30708527 40.37193344 68.92324435 41.72740464 70.578125 43.03125 C72.75959608 44.80457488 74.50430783 46.54728247 76.3125 48.6875 C78.12158777 50.8156097 79.9264563 52.92177199 81.83984375 54.95703125 C108.69603242 83.68052138 127.00895034 127.25730537 127.203125 166.5703125 C127.20882507 167.4872287 127.21452515 168.4041449 127.22039795 169.34884644 C127.22981495 171.29033266 127.23636876 173.23183463 127.24023438 175.17333984 C127.24981039 178.06769009 127.28081009 180.96128873 127.3125 183.85546875 C127.36787162 193.45875263 127.00718246 202.8484197 125.671875 212.3671875 C125.55515442 213.20492706 125.43843384 214.04266663 125.31817627 214.90579224 C124.558337 219.78520278 123.36877951 224.32492105 121.7164917 228.97851562 C121.00942357 230.97341267 120.38422779 232.97932566 119.78125 235.0078125 C111.10815075 263.27505695 95.69395546 290.65566849 74 311 C73.175 311.825 72.35 312.65 71.5 313.5 C70.675 314.325 69.85 315.15 69 316 C68.44489746 316.57830566 67.88979492 317.15661133 67.31787109 317.75244141 C62.57428634 322.6311779 57.61827165 326.86619428 52.125 330.875 C51.30201416 331.47650879 50.47902832 332.07801758 49.63110352 332.69775391 C8.31219517 362.32680018 -43.69964477 373.52185368 -93.72875977 365.43188477 C-103.35794822 363.71376455 -112.69441875 360.97876573 -122 358 C-122.69657715 357.78005371 -123.3931543 357.56010742 -124.11083984 357.33349609 C-148.19761114 349.55216908 -170.30815584 335.81540601 -188.51953125 318.33984375 C-190.96289845 315.96970473 -190.96289845 315.96970473 -193.62890625 313.90625 C-196.44241943 311.64431519 -198.61201181 309.16835675 -200.9375 306.421875 C-202.40642355 304.69700265 -203.91057505 303.00186966 -205.4375 301.328125 C-228.37229326 275.87003721 -242.19861126 242.47711415 -248 209 C-248.22558594 207.75992188 -248.45117188 206.51984375 -248.68359375 205.2421875 C-254.37279505 168.281997 -247.6241108 129.33609532 -231 96 C-230.6685498 95.33145996 -230.33709961 94.66291992 -229.99560547 93.97412109 C-221.31050143 76.65058431 -210.18061148 60.29840754 -196 47 C-195.175 46.175 -194.35 45.35 -193.5 44.5 C-192.675 43.675 -191.85 42.85 -191 42 C-190.44634766 41.42241943 -189.89269531 40.84483887 -189.32226562 40.24975586 C-184.54509329 35.33197104 -179.53950109 31.09373531 -174 27.0625 C-172.76431274 26.15854492 -172.76431274 26.15854492 -171.50366211 25.23632812 C-164.53779155 20.2257779 -157.35297158 15.86739148 -149.74462891 11.91113281 C-148.16513361 11.08624106 -146.60288066 10.22853912 -145.04296875 9.3671875 C-135.81176055 4.43526927 -125.91861581 1.24286273 -116 -2 C-114.78054687 -2.40476562 -113.56109375 -2.80953125 -112.3046875 -3.2265625 C-76.34601599 -14.36269954 -35.31504755 -11.97660065 0 0 Z M-164.125 84.375 C-168.01518716 89.82126203 -169.37017732 94.57672545 -169.6171875 101.21875 C-169.64225372 101.88032104 -169.66731995 102.54189209 -169.69314575 103.22351074 C-169.74175811 104.6115113 -169.78341449 105.99977171 -169.81835938 107.38818359 C-169.87488942 109.49587723 -169.96338058 111.60059048 -170.0546875 113.70703125 C-170.0982844 115.06504357 -170.14001362 116.42311741 -170.1796875 117.78125 C-170.21819824 118.99876953 -170.25670898 120.21628906 -170.29638672 121.47070312 C-169.94016006 125.71255861 -168.96875502 128.23731032 -167 132 C-163.61072429 134.46492779 -161.62408155 134.9890512 -157.4375 135.0625 C-154.01684592 134.00520692 -152.25453268 133.01998498 -150.03686523 130.21362305 C-147.62906877 125.07317318 -148.29886648 118.93747447 -148.3125 113.375 C-148.30075191 110.75739885 -148.27153223 108.14095503 -148.23828125 105.5234375 C-148.23868408 104.36763184 -148.23908691 103.21182617 -148.23950195 102.02099609 C-148.00469676 99.05924328 -147.65891077 97.43418766 -146 95 C-138.70316135 90.46384995 -130.090368 91.59515798 -121.78320312 91.6484375 C-114.54792894 91.74383796 -114.54792894 91.74383796 -108.23046875 88.70703125 C-105.6065749 85.52251559 -104.980247 83.98235047 -104.76171875 79.99609375 C-105.17238187 76.55594862 -106.7569062 74.54621458 -109 72 C-114.18630965 68.62378871 -120.67776216 69.67225067 -126.625 69.6875 C-128.47544922 69.66333008 -128.47544922 69.66333008 -130.36328125 69.63867188 C-145.14440437 69.63081793 -154.19395691 73.2755989 -164.125 84.375 Z M-16.4375 75.75 C-17.3193928 79.27757122 -17.39450197 82.65693054 -16 86 C-13.18782985 89.43490027 -11.51137501 90.77033897 -7.09033203 91.44213867 C-3.57401062 91.61015842 -0.08272774 91.64757762 3.4375 91.625 C18.7606441 91.625 18.7606441 91.625 24 95 C26.01408396 98.84441353 26.23984284 102.10452701 26.23828125 106.40234375 C26.25439453 107.62244141 26.27050781 108.84253906 26.28710938 110.09960938 C26.30401028 112.65424628 26.30925475 115.20898739 26.30273438 117.76367188 C26.20036043 125.26301537 26.20036043 125.26301537 29.33203125 131.80859375 C32.7405308 134.60825443 34.59215818 135.15199455 39 135 C42.59898247 133.74944448 45.38475293 132.19556578 47.18261719 128.7019043 C48.06175622 125.79586137 48.25848182 123.42655504 48.265625 120.39453125 C48.26820313 119.32783203 48.27078125 118.26113281 48.2734375 117.16210938 C48.26183594 115.50405273 48.26183594 115.50405273 48.25 113.8125 C48.25773437 112.72646484 48.26546875 111.64042969 48.2734375 110.52148438 C48.24442684 98.44579702 46.77281179 89.35009297 38.5 80.25 C27.94987207 70.75488486 18.79292773 69.79231243 5.0625 69.6875 C3.16854492 69.64399414 3.16854492 69.64399414 1.23632812 69.59960938 C-6.47478133 69.54670994 -11.34318891 69.54822998 -16.4375 75.75 Z M-95.2109375 151.796875 C-103.37072218 161.8451688 -104.89207277 173.45434174 -104 186 C-102.22894793 196.56678126 -96.31993331 206.29143717 -88 213 C-77.19243083 220.61197562 -66.21240983 223.91937035 -53 222 C-49.39439362 220.86021121 -46.07890631 219.53277485 -42.671875 217.8984375 C-40 217 -40 217 -38.03076172 217.75610352 C-35.98549401 219.00888531 -34.50061945 220.28436486 -32.8359375 222.00390625 C-32.27132812 222.57947266 -31.70671875 223.15503906 -31.125 223.74804688 C-30.5475 224.34681641 -29.97 224.94558594 -29.375 225.5625 C-28.21839849 226.75349384 -27.05964222 227.94240005 -25.8984375 229.12890625 C-25.38974121 229.65556885 -24.88104492 230.18223145 -24.35693359 230.72485352 C-22.13722916 232.81076863 -20.84322138 233.01808984 -17.75 233.375 C-12.80727042 232.88072704 -11.46171699 231.46171699 -8 228 C-6.36976186 224.73952371 -6.5326465 222.62198965 -7 219 C-8.96479887 215.9696519 -11.43944707 213.53272083 -14 211 C-14.8146875 210.17242187 -15.629375 209.34484375 -16.46875 208.4921875 C-18.62957945 206.31084385 -20.80665944 204.14857851 -23 202 C-21.15027574 196.40257353 -21.15027574 196.40257353 -20.1484375 193.71875 C-16.47547614 183.18217398 -16.6353343 171.31931677 -21 161 C-27.60755261 148.84944493 -37.79362848 140.67227819 -50.84765625 136.39453125 C-68.20722347 133.21246902 -83.15232807 139.20980062 -95.2109375 151.796875 Z M-167 226 C-170.92160033 232.31941846 -170.33352013 238.43340002 -170.07373047 245.57519531 C-170.00067126 247.73019994 -169.96950228 249.88306153 -169.94140625 252.0390625 C-169.73918923 260.322781 -168.62183804 266.91489483 -164 274 C-163.13375 275.36125 -163.13375 275.36125 -162.25 276.75 C-151.84842127 287.15157873 -140.56117457 288.2001903 -126.5 288.3125 C-125.28957031 288.34150391 -124.07914063 288.37050781 -122.83203125 288.40039062 C-114.08733068 288.52088245 -114.08733068 288.52088245 -107 284 C-105.10076374 280.94470689 -105 279.11473218 -105 275.5 C-106.00907536 271.96823625 -106.98440643 270.29952974 -109.85986328 268.03466797 C-114.63762153 265.72481861 -120.23977427 266.29860977 -125.4375 266.3125 C-141.26972053 266.20214136 -141.26972053 266.20214136 -146 264 C-148.07927278 260.11133056 -148.23980739 256.73787225 -148.23828125 252.37890625 C-148.25439453 251.11369141 -148.27050781 249.84847656 -148.28710938 248.54492188 C-148.30401124 245.89392897 -148.30925439 243.24283564 -148.30273438 240.59179688 C-148.16800255 232.89439725 -148.16800255 232.89439725 -151.328125 226.15625 C-156.63712334 221.8717952 -161.52191347 222.14043903 -167 226 Z M30 226 C26.75535965 229.38448716 26.64158889 231.91763142 26.6640625 236.5234375 C26.65117187 237.791875 26.63828125 239.0603125 26.625 240.3671875 C26.61978345 243.03154216 26.6327645 245.69496531 26.6484375 248.359375 C26.51580984 259.25694799 26.51580984 259.25694799 23.7109375 262.8515625 C19.5207217 266.17233871 16.17353389 266.11690876 10.9140625 266.140625 C9.14675781 266.16962891 9.14675781 266.16962891 7.34375 266.19921875 C4.872559 266.23296401 2.40110752 266.25129376 -0.0703125 266.25390625 C-7.40016102 266.21996933 -7.40016102 266.21996933 -13.7890625 269.328125 C-16.55350756 272.66890312 -17 274.68785083 -17 279 C-16.18028284 281.84902067 -16.18028284 281.84902067 -15 284 C-14.34 284 -13.68 284 -13 284 C-13 284.66 -13 285.32 -13 286 C-9.60213295 288.0547378 -6.95836338 288.25718615 -3.01953125 288.265625 C-1.85486328 288.26820313 -0.69019531 288.27078125 0.50976562 288.2734375 C2.33024414 288.26183594 2.33024414 288.26183594 4.1875 288.25 C5.97897461 288.26160156 5.97897461 288.26160156 7.80664062 288.2734375 C18.46518603 288.24997345 26.2778035 287.24386313 35 281 C35.86625 280.443125 36.7325 279.88625 37.625 279.3125 C45.80229289 271.35039903 47.95892544 261.82546641 48.30078125 250.765625 C48.31519026 248.59379428 48.3189716 246.42186887 48.3125 244.25 C48.33666992 242.60451172 48.33666992 242.60451172 48.36132812 240.92578125 C48.3764377 233.02888612 48.3764377 233.02888612 45 226 C39.33952714 222.38693222 35.50037316 222.05101414 30 226 Z " fill="#2E95C9" transform="translate(311,71)"/>
<path d="M0 0 C4.93476142 4.49676485 8.53187326 9.05358271 9.3359375 15.83203125 C9.43647875 23.50332885 8.72755058 29.0427899 3.3515625 34.75 C-2.66644891 40.21614137 -7.93057922 41.47683148 -15.99609375 41.30859375 C-23.05849295 40.58306769 -27.33643188 37.22066441 -31.7734375 31.87890625 C-35.6641338 25.91895427 -35.71020395 19.91325113 -35 13 C-33.26367424 6.7513067 -29.31618225 2.55191078 -24 -1 C-16.7542297 -4.54237659 -6.90721783 -4.31879872 0 0 Z " fill="#2F94C8" transform="translate(263,231)"/>
<path d="M0 0 C0.99 0.99 0.99 0.99 2 2 C-6.13802898 34.7477416 -22.1499675 66.69593726 -47 90 C-47.825 90.825 -48.65 91.65 -49.5 92.5 C-50.325 93.325 -51.15 94.15 -52 95 C-52.83265381 95.8674585 -52.83265381 95.8674585 -53.68212891 96.75244141 C-58.42571366 101.6311779 -63.38172835 105.86619428 -68.875 109.875 C-69.69798584 110.47650879 -70.52097168 111.07801758 -71.36889648 111.69775391 C-88.81075571 124.20499756 -115.83994267 141 -138 141 C-138 140.34 -138 139.68 -138 139 C-134.535 138.01 -134.535 138.01 -131 137 C-131.33 135.68 -131.66 134.36 -132 133 C-131.01 133.33 -130.02 133.66 -129 134 C-127.32337342 133.72105162 -125.65747602 133.37638031 -124 133 C-121.56441124 132.63292007 -119.12674382 132.27945007 -116.6875 131.9375 C-114.80611328 131.67259766 -114.80611328 131.67259766 -112.88671875 131.40234375 C-111.93410156 131.26957031 -110.98148437 131.13679687 -110 131 C-110.33 128.69 -110.66 126.38 -111 124 C-109.0625 124.375 -109.0625 124.375 -107 125 C-106.505 125.99 -106.505 125.99 -106 127 C-105.443125 126.505 -104.88625 126.01 -104.3125 125.5 C-101.61837017 123.75245633 -100.14624993 123.73781251 -97 124 C-96.855625 123.4225 -96.71125 122.845 -96.5625 122.25 C-96.04166667 120.16666667 -95.52083333 118.08333333 -95 116 C-92.66666667 116 -90.33333333 116 -88 116 C-84.96655046 115.91115 -84.96655046 115.91115 -82 115 C-80.60333803 112.52409924 -80 110.83735815 -80 108 C-73.25 107.875 -73.25 107.875 -71 109 C-70.67 106.03 -70.34 103.06 -70 100 C-68.515 100.495 -68.515 100.495 -67 101 C-67.66 101 -68.32 101 -69 101 C-69 101.66 -69 102.32 -69 103 C-68.01 103 -67.02 103 -66 103 C-66 102.34 -66 101.68 -66 101 C-65.360625 100.896875 -64.72125 100.79375 -64.0625 100.6875 C-63.381875 100.460625 -62.70125 100.23375 -62 100 C-61.505 98.515 -61.505 98.515 -61 97 C-61.66 96.34 -62.32 95.68 -63 95 C-60 93 -60 93 -57 93 C-54.30709554 92.42331683 -51.6650302 91.69902432 -49 91 C-48.87625 89.865625 -48.7525 88.73125 -48.625 87.5625 C-48.41875 86.386875 -48.2125 85.21125 -48 84 C-47.34 83.67 -46.68 83.34 -46 83 C-45.505 81.515 -45.505 81.515 -45 80 C-45.66 80 -46.32 80 -47 80 C-47.33 79.01 -47.66 78.02 -48 77 C-47.34 76.67 -46.68 76.34 -46 76 C-45.360625 76.33 -44.72125 76.66 -44.0625 77 C-41.8881755 78.35074272 -41.8881755 78.35074272 -39 77 C-37.78130071 74.49552484 -37.78130071 74.49552484 -37 72 C-37.66 71.67 -38.32 71.34 -39 71 C-38.505 69.515 -38.505 69.515 -38 68 C-36.515 68.99 -36.515 68.99 -35 70 C-33.4166747 68.7511573 -33.4166747 68.7511573 -32 67 C-32 65.68 -32 64.36 -32 63 C-31.67 62.01 -31.34 61.02 -31 60 C-31 60.66 -31 61.32 -31 62 C-30.01 62 -29.02 62 -28 62 C-27.814375 61.071875 -27.814375 61.071875 -27.625 60.125 C-27 58 -27 58 -25 56 C-24.59952556 53.67724823 -24.2602896 51.34260643 -24 49 C-22.35 48.67 -20.7 48.34 -19 48 C-19 46.68 -19 45.36 -19 44 C-18.01 43.67 -17.02 43.34 -16 43 C-15.19787372 41.12612784 -15.19787372 41.12612784 -14.8125 38.9375 C-14.65394531 38.20402344 -14.49539063 37.47054687 -14.33203125 36.71484375 C-14.22246094 36.14894531 -14.11289062 35.58304687 -14 35 C-14.66 34.67 -15.32 34.34 -16 34 C-15.34 34 -14.68 34 -14 34 C-14 33.34 -14 32.68 -14 32 C-13.34 32 -12.68 32 -12 32 C-11.71125 31.38125 -11.4225 30.7625 -11.125 30.125 C-10 28 -10 28 -8 26 C-8 24.68 -8 23.36 -8 22 C-7.01 21.505 -7.01 21.505 -6 21 C-6.165 20.236875 -6.33 19.47375 -6.5 18.6875 C-6.98753647 16.06699147 -7 13.6548679 -7 11 C-6.34 11 -5.68 11 -5 11 C-4.67 9.35 -4.34 7.7 -4 6 C-3.01 5.67 -2.02 5.34 -1 5 C-0.67 3.35 -0.34 1.7 0 0 Z " fill="#2064A6" transform="translate(432,292)"/>
<path d="M0 0 C7.45010849 2.4609968 15.26382284 1.81653727 23.01147461 1.61010742 C24.65305835 1.56953082 26.29541485 1.5625 27.9375 1.5625 C28.2675 0.9025 28.5975 0.2425 28.9375 -0.4375 C29.5975 -0.4375 30.2575 -0.4375 30.9375 -0.4375 C30.9375 0.5525 30.9375 1.5425 30.9375 2.5625 C32.5875 2.8925 34.2375 3.2225 35.9375 3.5625 C35.916875 4.34625 35.89625 5.13 35.875 5.9375 C35.75065937 8.54364961 35.75065937 8.54364961 36.9375 10.5625 C37.64908934 18.10534697 35.35875884 24.47167053 32.9375 31.5625 C32.15632813 31.3871875 31.37515625 31.211875 30.5703125 31.03125 C27.86338492 30.54930444 26.53056519 30.87101595 23.9375 31.5625 C22.9475 31.2325 21.9575 30.9025 20.9375 30.5625 C21.5975 29.5725 22.2575 28.5825 22.9375 27.5625 C17.3275 27.5625 11.7175 27.5625 5.9375 27.5625 C4.9475 30.2025 3.9575 32.8425 2.9375 35.5625 C3.5975 35.5625 4.2575 35.5625 4.9375 35.5625 C4.9375 36.8825 4.9375 38.2025 4.9375 39.5625 C2.9575 39.5625 0.9775 39.5625 -1.0625 39.5625 C-1.0625 38.9025 -1.0625 38.2425 -1.0625 37.5625 C-1.84625 37.748125 -2.63 37.93375 -3.4375 38.125 C-6.0625 38.5625 -6.0625 38.5625 -8.0625 37.5625 C-7.7325 43.5025 -7.4025 49.4425 -7.0625 55.5625 C-5.0825 55.5625 -3.1025 55.5625 -1.0625 55.5625 C-1.79047743 57.79011093 -2.52682537 60.0142369 -3.27734375 62.234375 C-3.86749939 63.98428922 -4.43851398 65.74067714 -5 67.5 C-6.31863543 70.05970408 -7.35937811 70.66145937 -10.0625 71.5625 C-15.72916667 71.5625 -21.39583333 71.5625 -27.0625 71.5625 C-27.3925 70.5725 -27.7225 69.5825 -28.0625 68.5625 C-28.7225 68.5625 -29.3825 68.5625 -30.0625 68.5625 C-30.6875 66.25 -30.6875 66.25 -31.0625 63.5625 C-30.4025 62.5725 -29.7425 61.5825 -29.0625 60.5625 C-28.85625 61.325625 -28.65 62.08875 -28.4375 62.875 C-26.57108855 66.52298601 -24.90916838 67.25608432 -21.0625 68.5625 C-16.8823226 68.5625 -14.89333571 68.38077127 -11.88305664 65.41601562 C-9.68362563 61.96865749 -9.56510172 59.96948755 -9.55859375 55.90625 C-9.53990234 54.63652344 -9.52121094 53.36679688 -9.50195312 52.05859375 C-9.50130859 50.73988281 -9.50066406 49.42117187 -9.5 48.0625 C-9.49105443 45.44783827 -9.46942606 42.83318149 -9.43359375 40.21875 C-9.43286865 39.06181641 -9.43214355 37.90488281 -9.43139648 36.71289062 C-9.02112064 33.20911859 -8.17277549 31.36363763 -6.0625 28.5625 C1.21416241 23.9820114 9.9320077 25.1274578 18.2421875 25.12304688 C19.41265625 25.10435547 20.583125 25.08566406 21.7890625 25.06640625 C23.37968506 25.06362671 23.37968506 25.06362671 25.00244141 25.06079102 C28.63802137 24.44357103 30.31047769 23.09834326 32.9375 20.5625 C34.50812369 16.76430906 34.29940307 13.43868638 32.75 9.6875 C30.12981883 6.61556346 28.10515224 5.67441078 24.07177734 5.2878418 C20.48499876 5.2594343 16.89940794 5.2408028 13.3125 5.25 C11.46205078 5.22583008 11.46205078 5.22583008 9.57421875 5.20117188 C-2.07334019 5.19498295 -10.72531661 6.99814386 -19.625 14.8125 C-24.92100473 20.78747969 -28.09244416 26.26235712 -28.37890625 34.32421875 C-28.42080078 35.44248047 -28.46269531 36.56074219 -28.50585938 37.71289062 C-28.54517578 38.88013672 -28.58449219 40.04738281 -28.625 41.25 C-28.68977539 43.01827148 -28.68977539 43.01827148 -28.75585938 44.82226562 C-28.86201176 47.73555883 -28.96406242 50.64893757 -29.0625 53.5625 C-29.3925 53.5625 -29.7225 53.5625 -30.0625 53.5625 C-30.0625 45.6425 -30.0625 37.7225 -30.0625 29.5625 C-31.7125 29.5625 -33.3625 29.5625 -35.0625 29.5625 C-35.0625 27.5825 -35.0625 25.6025 -35.0625 23.5625 C-33.0825 23.5625 -31.1025 23.5625 -29.0625 23.5625 C-27.11305078 19.91787755 -25.50982303 16.70023807 -25.0625 12.5625 C-25.3925 11.5725 -25.7225 10.5825 -26.0625 9.5625 C-23.57906752 8.79836693 -21.75217882 8.57570516 -19.125 8.6875 C-15.55598526 8.54182593 -13.8435617 7.77099018 -11.0625 5.5625 C-11.0625 4.5725 -11.0625 3.5825 -11.0625 2.5625 C-10.4025 2.5625 -9.7425 2.5625 -9.0625 2.5625 C-8.7325 1.5725 -8.4025 0.5825 -8.0625 -0.4375 C-4.88163694 -1.80465281 -3.10948693 -1.26975419 0 0 Z " fill="#4DAFCB" transform="translate(171.0625,136.4375)"/>
<path d="M0 0 C0.825 0.165 1.65 0.33 2.5 0.5 C5.21152596 0.88736085 7.54013306 1.0395601 10.25 1 C14 1 14 1 16 2 C16.33 1.34 16.66 0.68 17 0 C19.31 0.99 21.62 1.98 24 3 C24.96569075 11.53393453 25.15189224 19.97939296 25.125 28.5625 C25.12886719 29.83158203 25.13273437 31.10066406 25.13671875 32.40820312 C25.13542969 33.61541016 25.13414062 34.82261719 25.1328125 36.06640625 C25.13168457 37.15896729 25.13055664 38.25152832 25.12939453 39.37719727 C25 42 25 42 24 44 C23.7734924 45.47369759 23.59092295 46.95441144 23.4375 48.4375 C23.35371094 49.21996094 23.26992188 50.00242187 23.18359375 50.80859375 C22.95825676 53.13174055 22.95825676 53.13174055 23 56 C23 59 23 59 21.25 61.125 C19.04025476 62.96645436 17.79909134 63.60012981 15 64 C15.495 67.465 15.495 67.465 16 71 C15.01 71 14.02 71 13 71 C9.95687115 71.11686998 6.916212 71.27905427 3.875 71.4375 C3.03839844 71.47681641 2.20179688 71.51613281 1.33984375 71.55664062 C-2.65438596 71.38541971 -2.65438596 71.38541971 -6 73 C-12.86461198 74.40094122 -19.72127056 73.90435822 -26.64086914 73.31884766 C-30.43666885 72.90601941 -30.43666885 72.90601941 -34 74 C-34 73.34 -34 72.68 -34 72 C-35.65 71.67 -37.3 71.34 -39 71 C-38.67 70.01 -38.34 69.02 -38 68 C-37.19502075 68.48678223 -37.19502075 68.48678223 -36.3737793 68.98339844 C-33.44440035 70.23794271 -31.20335045 70.25880375 -28.01953125 70.265625 C-26.85486328 70.26820313 -25.69019531 70.27078125 -24.49023438 70.2734375 C-22.66975586 70.26183594 -22.66975586 70.26183594 -20.8125 70.25 C-19.02102539 70.26160156 -19.02102539 70.26160156 -17.19335938 70.2734375 C-5.04907883 70.24670271 3.38201205 68.69454777 12.6875 60.6875 C21.47323028 50.4770567 22.35174436 40.42040615 22.3125 27.25 C22.33666992 25.60451172 22.33666992 25.60451172 22.36132812 23.92578125 C22.36476405 18.25649865 22.36171376 13.81980647 19 9 C15.93537213 7.0420433 14.08933259 6.99843276 10.4375 7.0625 C6.21895696 8.21301174 5.31377876 9.35300531 3 13 C2.45874213 16.16554167 2.45874213 16.16554167 2.6015625 19.5859375 C2.59640625 20.84664063 2.59125 22.10734375 2.5859375 23.40625 C2.61190315 26.04436027 2.64571137 28.68240543 2.6875 31.3203125 C2.61637479 42.93742955 2.61637479 42.93742955 -2.31884766 47.88525391 C-5.99650386 50.3238508 -9.81511835 50.13106473 -14.12109375 50.17578125 C-15.89516602 50.21155273 -15.89516602 50.21155273 -17.70507812 50.24804688 C-20.18927929 50.29094517 -22.67370861 50.32223393 -25.15820312 50.34179688 C-26.34220703 50.36951172 -27.52621094 50.39722656 -28.74609375 50.42578125 C-29.82560303 50.44036377 -30.9051123 50.45494629 -32.01733398 50.4699707 C-35.6977159 51.12398635 -37.38011093 52.37124297 -40 55 C-41.30587201 59.94365834 -40.7681125 64.00726877 -40 69 C-40.33 69.99 -40.66 70.98 -41 72 C-41.99 71.67 -42.98 71.34 -44 71 C-44 70.01 -44 69.02 -44 68 C-44.33 68.99 -44.66 69.98 -45 71 C-45.99 71 -46.98 71 -48 71 C-47.67 70.01 -47.34 69.02 -47 68 C-47.38932856 65.85744207 -47.38932856 65.85744207 -48 64 C-47.34 64 -46.68 64 -46 64 C-46.350625 63.278125 -46.70125 62.55625 -47.0625 61.8125 C-48.10409017 58.6877295 -47.89096572 57.11838004 -47 54 C-45.515 53.505 -45.515 53.505 -44 53 C-44.99 52.67 -45.98 52.34 -47 52 C-47 51.34 -47 50.68 -47 50 C-41.94644511 48.33161512 -37.9187618 47.80005138 -32.53515625 48.0234375 C-31.51789711 48.06097641 -31.51789711 48.06097641 -30.48008728 48.09927368 C-28.34031745 48.18063493 -26.20159066 48.27753833 -24.0625 48.375 C-22.60095236 48.43332581 -21.13936346 48.49062705 -19.67773438 48.546875 C-16.1179356 48.68608486 -12.55889774 48.83922844 -9 49 C-8.87238281 48.22269531 -8.74476563 47.44539063 -8.61328125 46.64453125 C-7.84101319 43.31443268 -6.68520636 42.07144491 -4 40 C-2.68 40 -1.36 40 0 40 C0 39.13197754 0 38.26395508 0 37.36962891 C0 24.91308594 0 12.45654297 0 0 Z " fill="#1D68AA" transform="translate(336,288)"/>
<path d="M0 0 C0.99 0.495 0.99 0.495 2 1 C-0.63185447 3.32222453 -2.6235681 4.88236503 -6 5.9375 C-9.66047103 7.23391682 -11.43241693 9.13897887 -14 12 C-14.33 12.33 -14.66 12.66 -15 13 C-16.093125 12.938125 -17.18625 12.87625 -18.3125 12.8125 C-21.99200841 12.65319986 -21.99200841 12.65319986 -24.3125 14.75 C-25.83716579 16.78288772 -27.00106153 18.66914357 -28 21 C-29.98 21 -31.96 21 -34 21 C-34 22.65 -34 24.3 -34 26 C-34.78375 25.938125 -35.5675 25.87625 -36.375 25.8125 C-37.674375 25.9053125 -37.674375 25.9053125 -39 26 C-39.99 27.485 -39.99 27.485 -41 29 C-41.66 29 -42.32 29 -43 29 C-43 30.98 -43 32.96 -43 35 C-44.98 34.505 -44.98 34.505 -47 34 C-47 34.66 -47 35.32 -47 36 C-48.98 36.33 -50.96 36.66 -53 37 C-53 37.66 -53 38.32 -53 39 C-52.34 39 -51.68 39 -51 39 C-51 40.65 -51 42.3 -51 44 C-51.99 44.33 -52.98 44.66 -54 45 C-54.33 44.67 -54.66 44.34 -55 44 C-55.66 44.99 -56.32 45.98 -57 47 C-58.66666667 47 -60.33333333 47 -62 47 C-64.48307071 48.68494084 -64.93875261 49.76057838 -65.6875 52.6875 C-65.790625 53.450625 -65.89375 54.21375 -66 55 C-66.66 55 -67.32 55 -68 55 C-68.33 56.65 -68.66 58.3 -69 60 C-70.32 59.67 -71.64 59.34 -73 59 C-73.66 61.31 -74.32 63.62 -75 66 C-75.99 66 -76.98 66 -78 66 C-78 66.66 -78 67.32 -78 68 C-79.98 68.99 -79.98 68.99 -82 70 C-82 70.99 -82 71.98 -82 73 C-83.54392565 74.7755145 -85.2136773 76.16835181 -87.0625 77.625 C-89.53138892 80.65137996 -89.89848571 83.27525271 -90.5078125 87.07421875 C-90.67023438 87.70972656 -90.83265625 88.34523438 -91 89 C-91.99 89.495 -91.99 89.495 -93 90 C-93 90.99 -93 91.98 -93 93 C-94.485 93.99 -94.485 93.99 -96 95 C-98.36980013 97.95377498 -98.36980013 97.95377498 -98 102 C-98.66 102 -99.32 102 -100 102 C-100 102.99 -100 103.98 -100 105 C-99.34 105 -98.68 105 -98 105 C-99.01812245 107.0362449 -100.03469612 109.06360955 -101.125 111.0625 C-102.20579336 113.10136548 -102.20579336 113.10136548 -102 116 C-103.31665664 117.67987227 -104.65263027 119.34466005 -106 121 C-107.04451438 122.97711651 -108.05698138 124.97250996 -109 127 C-108.01 127.33 -107.02 127.66 -106 128 C-105.9729957 129.45823212 -105.95360213 130.91660675 -105.9375 132.375 C-105.92589844 133.18710938 -105.91429688 133.99921875 -105.90234375 134.8359375 C-106 137 -106 137 -107 139 C-107.99 139.33 -108.98 139.66 -110 140 C-112.00293347 143.00440021 -112.49271626 144.70993945 -113.125 148.1875 C-113.37636719 149.53908203 -113.37636719 149.53908203 -113.6328125 150.91796875 C-113.81457031 151.94857422 -113.81457031 151.94857422 -114 153 C-114.33 153 -114.66 153 -115 153 C-116.04610268 115.96796518 -93.26876465 74.97591015 -68.70703125 48.53125 C-66.83629609 46.64998537 -64.93505859 44.81467476 -63 43 C-62.175 42.175 -61.35 41.35 -60.5 40.5 C-59.675 39.675 -58.85 38.85 -58 38 C-57.44634766 37.42241943 -56.89269531 36.84483887 -56.32226562 36.24975586 C-51.54509329 31.33197104 -46.53950109 27.09373531 -41 23.0625 C-40.1762085 22.45986328 -39.35241699 21.85722656 -38.50366211 21.23632812 C-30.99838419 15.83778222 -23.2103952 11.23079946 -15 7 C-14.40477539 6.690625 -13.80955078 6.38125 -13.19628906 6.0625 C-4.16577321 1.38859107 -4.16577321 1.38859107 0 0 Z " fill="#60CBD6" transform="translate(178,75)"/>
<path d="M0 0 C1.32 0 2.64 0 4 0 C4 0.66 4 1.32 4 2 C4.66 2 5.32 2 6 2 C6 2.66 6 3.32 6 4 C6.99 4 7.98 4 9 4 C8.505 2.515 8.505 2.515 8 1 C11 2 11 2 12 4 C12.35169068 5.32860925 12.68770276 6.66158328 13 8 C15.31 8 17.62 8 20 8 C19.67 8.99 19.34 9.98 19 11 C18.34 10.67 17.68 10.34 17 10 C17.474375 10.433125 17.94875 10.86625 18.4375 11.3125 C20 13 20 13 21 16 C23.31 16.33 25.62 16.66 28 17 C28 20.66666667 28 24.33333333 28 28 C28.66 28 29.32 28 30 28 C29.4740625 29.423125 29.4740625 29.423125 28.9375 30.875 C27.64973223 33.87060172 27.64973223 33.87060172 29 36 C29.09722806 37.97336269 29.13076584 39.95002584 29.1328125 41.92578125 C29.13474609 43.70952148 29.13474609 43.70952148 29.13671875 45.52929688 C29.13285156 46.77775391 29.12898438 48.02621094 29.125 49.3125 C29.13080078 51.1677832 29.13080078 51.1677832 29.13671875 53.06054688 C29.13542969 54.25357422 29.13414062 55.44660156 29.1328125 56.67578125 C29.13168457 57.76802002 29.13055664 58.86025879 29.12939453 59.9855957 C28.93588866 64.49355224 28.19416649 68.05050031 26 72 C19.36123192 72.23616171 14.05709252 72.02854626 8 69 C7.67 69.66 7.34 70.32 7 71 C6.67 70.34 6.34 69.68 6 69 C5.01 68.505 5.01 68.505 4 68 C4.00523682 67.08710205 4.01047363 66.1742041 4.01586914 65.23364258 C4.03295631 61.83243167 4.0454722 58.43126669 4.05493164 55.0300293 C4.05994669 53.56062091 4.06676033 52.09121748 4.07543945 50.62182617 C4.08762928 48.50438205 4.09325669 46.38700417 4.09765625 44.26953125 C4.10289307 42.99698486 4.10812988 41.72443848 4.11352539 40.41333008 C4.01539606 37.4629081 3.69063835 34.86053325 3 32 C2.0925 31.71125 1.185 31.4225 0.25 31.125 C-3 30 -3 30 -4.85058594 28.95556641 C-7.53672338 27.76138854 -9.70624598 27.67958789 -12.640625 27.5859375 C-13.71054687 27.54726562 -14.78046875 27.50859375 -15.8828125 27.46875 C-17.54957031 27.42234375 -17.54957031 27.42234375 -19.25 27.375 C-20.37664062 27.33632812 -21.50328125 27.29765625 -22.6640625 27.2578125 C-25.44254548 27.16362664 -28.22102334 27.07800414 -31 27 C-31 26.67 -31 26.34 -31 26 C-26.64596135 25.91244328 -22.29215123 25.85942031 -17.9375 25.8125 C-16.70837891 25.78736328 -15.47925781 25.76222656 -14.21289062 25.73632812 C-2.08141761 25.63822996 -2.08141761 25.63822996 3 29 C5.62526052 33.30123924 6.36782379 36.53030283 6.37109375 41.53515625 C6.39719727 43.36723633 6.39719727 43.36723633 6.42382812 45.23632812 C6.43295663 47.79100463 6.43815303 50.34569815 6.43945312 52.90039062 C6.46749023 54.73053711 6.46749023 54.73053711 6.49609375 56.59765625 C6.49887329 58.26066772 6.49887329 58.26066772 6.50170898 59.95727539 C7.11435962 63.69831651 8.32908675 65.3500304 11 68 C15.07452047 69.20726532 17.28299183 69.24351221 21.3125 67.875 C24.44576769 65.68899929 24.88770459 64.5823208 26 61 C26.30379816 58.26744032 26.30379816 58.26744032 26.265625 55.39453125 C26.26820313 54.32783203 26.27078125 53.26113281 26.2734375 52.16210938 C26.26183594 50.50405273 26.26183594 50.50405273 26.25 48.8125 C26.25773437 47.72646484 26.26546875 46.64042969 26.2734375 45.52148438 C26.244373 33.42338615 24.67696505 24.59755398 16.6875 15.3125 C6.73016765 6.74456286 -2.68021385 5.71310425 -15.5 5.375 C-16.70398438 5.33632812 -17.90796875 5.29765625 -19.1484375 5.2578125 C-22.09881119 5.16414984 -25.04918856 5.07842476 -28 5 C-28 4.34 -28 3.68 -28 3 C-20.32413419 1.26050523 -12.58055039 1.6719219 -4.875 3.07421875 C-2.31284561 2.97280014 -1.7545317 1.77737717 0 0 Z " fill="#2269A5" transform="translate(332,136)"/>
<path d="M0 0 C4.7540859 -0.33168041 7.05646203 0.40556713 11 3 C13.19130534 3.69579454 13.19130534 3.69579454 15 4 C15 3.34 15 2.68 15 2 C16.32 2 17.64 2 19 2 C20 5 20 5 19 8 C21.57213134 9.61949011 22.67669159 10.04408751 25.75 9.625 C26.4925 9.41875 27.235 9.2125 28 9 C27.896875 10.093125 27.79375 11.18625 27.6875 12.3125 C27.58829072 16.09011848 27.58829072 16.09011848 30.25 18.0625 C31.1575 18.371875 32.065 18.68125 33 19 C34.32 18.34 35.64 17.68 37 17 C37 20.3 37 23.6 37 27 C36.01 27 35.02 27 34 27 C34 28.32 34 29.64 34 31 C34.99 31 35.98 31 37 31 C37.05785647 34.95827235 37.09354717 38.9164367 37.125 42.875 C37.14175781 44.00292969 37.15851563 45.13085938 37.17578125 46.29296875 C37.18544922 47.90751953 37.18544922 47.90751953 37.1953125 49.5546875 C37.21102295 51.04718018 37.21102295 51.04718018 37.22705078 52.56982422 C37 55 37 55 35 57 C35.99 57.495 35.99 57.495 37 58 C37 62.62 37 67.24 37 72 C38.134375 72.433125 39.26875 72.86625 40.4375 73.3125 C41.613125 73.869375 42.78875 74.42625 44 75 C44.33 75.99 44.66 76.98 45 78 C44.34 78.99 43.68 79.98 43 81 C38.05 76.05 33.1 71.1 28 66 C30 60 30 60 30.8515625 57.71875 C34.52267465 47.18747877 34.37101005 35.31309488 30 25 C24.27982855 14.59827901 16.3310054 7.46818738 5.3828125 3.0078125 C3 2 3 2 0 0 Z " fill="#3183B6" transform="translate(259,207)"/>
<path d="M0 0 C0.825 0.165 1.65 0.33 2.5 0.5 C5.21152596 0.88736085 7.54013306 1.0395601 10.25 1 C14 1 14 1 16 2 C16.33 1.34 16.66 0.68 17 0 C18.65 0.66 20.3 1.32 22 2 C20.98046875 3.45703125 20.98046875 3.45703125 19 5 C16.37060795 5.37644848 13.94927528 5.60133087 11.3125 5.6875 C10.61060547 5.72166016 9.90871094 5.75582031 9.18554688 5.79101562 C7.45758613 5.87329947 5.72881928 5.9383324 4 6 C3.25542785 10.64206287 2.88818661 15.08221169 2.89453125 19.78125 C2.87229492 21.66263672 2.87229492 21.66263672 2.84960938 23.58203125 C2.82487085 26.19389846 2.81966165 28.80602366 2.83398438 31.41796875 C2.71912321 38.19129695 2.58610567 42.92920395 -2.32543945 47.88085938 C-5.99275063 50.3317931 -9.81930331 50.13110819 -14.12109375 50.17578125 C-15.89516602 50.21155273 -15.89516602 50.21155273 -17.70507812 50.24804688 C-20.18927929 50.29094517 -22.67370861 50.32223393 -25.15820312 50.34179688 C-26.34220703 50.36951172 -27.52621094 50.39722656 -28.74609375 50.42578125 C-29.82560303 50.44036377 -30.9051123 50.45494629 -32.01733398 50.4699707 C-35.6977159 51.12398635 -37.38011093 52.37124297 -40 55 C-41.30587201 59.94365834 -40.7681125 64.00726877 -40 69 C-40.33 69.99 -40.66 70.98 -41 72 C-41.99 71.67 -42.98 71.34 -44 71 C-44 70.01 -44 69.02 -44 68 C-44.33 68.99 -44.66 69.98 -45 71 C-45.99 71 -46.98 71 -48 71 C-47.67 70.01 -47.34 69.02 -47 68 C-47.38932856 65.85744207 -47.38932856 65.85744207 -48 64 C-47.34 64 -46.68 64 -46 64 C-46.350625 63.278125 -46.70125 62.55625 -47.0625 61.8125 C-48.10409017 58.6877295 -47.89096572 57.11838004 -47 54 C-45.515 53.505 -45.515 53.505 -44 53 C-44.99 52.67 -45.98 52.34 -47 52 C-47 51.34 -47 50.68 -47 50 C-41.94644511 48.33161512 -37.9187618 47.80005138 -32.53515625 48.0234375 C-31.51789711 48.06097641 -31.51789711 48.06097641 -30.48008728 48.09927368 C-28.34031745 48.18063493 -26.20159066 48.27753833 -24.0625 48.375 C-22.60095236 48.43332581 -21.13936346 48.49062705 -19.67773438 48.546875 C-16.1179356 48.68608486 -12.55889774 48.83922844 -9 49 C-8.87238281 48.22269531 -8.74476563 47.44539063 -8.61328125 46.64453125 C-7.84101319 43.31443268 -6.68520636 42.07144491 -4 40 C-2.68 40 -1.36 40 0 40 C0 39.13197754 0 38.26395508 0 37.36962891 C0 24.91308594 0 12.45654297 0 0 Z " fill="#2D80B7" transform="translate(336,288)"/>
<path d="M0 0 C14.34232649 5.34321967 27.6265525 16.93838768 38 28 C38.825 28.825 39.65 29.65 40.5 30.5 C41.325 31.325 42.15 32.15 43 33 C43.54785156 33.50144531 44.09570312 34.00289062 44.66015625 34.51953125 C52.73703399 42.13202999 60.95833408 52.04407487 66 62 C65.505 62.99 65.505 62.99 65 64 C61.125 62.25 61.125 62.25 60 60 C59.01 59.67 58.02 59.34 57 59 C56.9175 57.88625 56.835 56.7725 56.75 55.625 C56.42126213 51.94246056 56.42126213 51.94246056 53.9375 50.5625 C52.9784375 50.2840625 52.9784375 50.2840625 52 50 C51.34 50.66 50.68 51.32 50 52 C49.86464844 51.30132812 49.72929687 50.60265625 49.58984375 49.8828125 C48.60058258 44.64419775 48.60058258 44.64419775 45.2421875 40.890625 C43.10650786 40.26901699 43.10650786 40.26901699 40 40 C40.04125 39.05125 40.0825 38.1025 40.125 37.125 C40.34973818 33.89755144 40.34973818 33.89755144 38 32 C36.68 32 35.36 32 34 32 C33.34 32 32.68 32 32 32 C32 30.02 32 28.04 32 26 C29.36 25.34 26.72 24.68 24 24 C24 21.69 24 19.38 24 17 C23.0925 17.12375 22.185 17.2475 21.25 17.375 C19.64125 17.189375 19.64125 17.189375 18 17 C16.61061923 15.03852126 15.2739589 13.03833424 14 11 C12.68 11 11.36 11 10 11 C10 10.34 10 9.68 10 9 C6.7 8.34 3.4 7.68 0 7 C0 4.69 0 2.38 0 0 Z " fill="#115CAF" transform="translate(344,87)"/>
<path d="M0 0 C2 2 2 2 2.21118164 5.65185547 C2.20407891 7.22370879 2.18632597 8.795536 2.16015625 10.3671875 C2.15495468 11.19832062 2.14975311 12.02945374 2.14439392 12.88577271 C2.12654605 15.54902414 2.09538673 18.21189503 2.0625 20.875 C2.03485912 23.53092761 2.01013028 26.18679875 1.99131775 28.84280396 C1.97909115 30.49672387 1.9615174 32.15061489 1.93800354 33.80441284 C1.90687211 37.39871273 2.08868401 40.53831487 3 44 C3.06548492 45.58211573 3.08578381 47.16670081 3.0625 48.75 C3.05347656 49.54921875 3.04445313 50.3484375 3.03515625 51.171875 C3.02355469 51.77515625 3.01195313 52.3784375 3 53 C3.66 53 4.32 53 5 53 C5.33 53.99 5.66 54.98 6 56 C6.66 56.33 7.32 56.66 8 57 C8 57.66 8 58.32 8 59 C8.66 59 9.32 59 10 59 C10 61.64 10 64.28 10 67 C9.34 67 8.68 67 8 67 C8.20496094 67.65226562 8.40992187 68.30453125 8.62109375 68.9765625 C10.06007077 73.64463149 11.29118279 78.15641573 12 83 C12.33 83.99 12.66 84.98 13 86 C15.01508358 86.73323796 15.01508358 86.73323796 17 87 C18.14787431 90.57116451 18.14787431 90.57116451 17.375 92.8125 C16.76779251 96.35454369 18.46660183 98.81053181 20 102 C21.98 101.01 21.98 101.01 24 100 C24 101.32 24 102.64 24 104 C23.34 104 22.68 104 22 104 C22.66 105.98 23.32 107.96 24 110 C24.66 110 25.32 110 26 110 C25.67 111.98 25.34 113.96 25 116 C9.84818094 102.18062734 4.37025512 71.44817363 1 52 C0.77441406 50.75992188 0.54882812 49.51984375 0.31640625 48.2421875 C-2.08060634 32.66987119 -2.41071792 15.58288062 0 0 Z " fill="#6DD6DD" transform="translate(62,228)"/>
<path d="M0 0 C2.64 0 5.28 0 8 0 C8.79953138 3.28696233 9.09658936 4.71023192 8 8 C9.55135735 12.90329482 9.55135735 12.90329482 13.0625 16.4375 C14.98386515 17.09293673 14.98386515 17.09293673 17 17 C17 18.98 17 20.96 17 23 C17.66 23.33 18.32 23.66 19 24 C19 24.66 19 25.32 19 26 C19.66 26 20.32 26 21 26 C21 26.66 21 27.32 21 28 C22.32 28.33 23.64 28.66 25 29 C25 30.32 25 31.64 25 33 C27.31 33.66 29.62 34.32 32 35 C32.495 37.475 32.495 37.475 33 40 C33.763125 39.9175 34.52625 39.835 35.3125 39.75 C38 40 38 40 39.75 41.75 C40.92994352 43.87389833 41.57496962 45.61982989 42 48 C43.32 48 44.64 48 46 48 C46 48.66 46 49.32 46 50 C46.66 50 47.32 50 48 50 C48.66 51.98 49.32 53.96 50 56 C52.31 56 54.62 56 57 56 C57 56.66 57 57.32 57 58 C59.11785113 59.11785113 59.11785113 59.11785113 62 60 C62 61.32 62 62.64 62 64 C63.32 64 64.64 64 66 64 C66.33 64.66 66.66 65.32 67 66 C68.65 66 70.3 66 72 66 C72.33 67.65 72.66 69.3 73 71 C74.98 71.33 76.96 71.66 79 72 C78.67 72.66 78.34 73.32 78 74 C73.24193737 72.60527019 69.15233369 70.56415738 64.9375 68 C64.28628174 67.60554688 63.63506348 67.21109375 62.96411133 66.8046875 C53.24757286 60.80277567 44.5302467 53.6932276 36.140625 45.953125 C34.40658742 44.37097392 32.65300618 42.89053119 30.8125 41.4375 C27.92327635 38.93350617 25.50546397 36.31812486 23.0390625 33.40625 C21.53794888 31.6348209 20.0073715 29.88825608 18.4609375 28.15625 C0 7.28893851 0 7.28893851 0 0 Z " fill="#5FC7D4" transform="translate(87,344)"/>
<path d="M0 0 C15.64744874 14.36524301 22.06623574 43.93946519 26 64 C26.18763916 64.91144775 26.37527832 65.82289551 26.56860352 66.76196289 C28.32385902 76.41000948 28.33799258 86.01763774 28.31567383 95.79077148 C28.31252472 98.66494107 28.33601158 101.538067 28.36132812 104.41210938 C28.39979519 116.24130301 27.37181374 127.41014967 25 139 C24.01 138.67 23.02 138.34 22 138 C22.2165625 136.91332031 22.2165625 136.91332031 22.4375 135.8046875 C23.39550392 130.81508377 24.27607149 126.10732262 24 121 C24.99 120.505 24.99 120.505 26 120 C26.02485162 114.5922885 26.04293147 109.18461079 26.05493164 103.77685547 C26.05993819 101.93993551 26.0667454 100.10301949 26.07543945 98.26611328 C26.08766697 95.61489892 26.09326523 92.96373757 26.09765625 90.3125 C26.10281754 89.50071289 26.10797882 88.68892578 26.11329651 87.85253906 C26.11378442 82.81265411 25.72096204 77.98935667 25 73 C23.515 72.505 23.515 72.505 22 72 C22 70.68 22 69.36 22 68 C22.66 68 23.32 68 24 68 C23.54460645 66.21345608 23.08903414 64.42695763 22.6328125 62.640625 C22.15306685 60.63872341 21.71823346 58.62599236 21.3046875 56.609375 C20.93730469 54.85367188 20.93730469 54.85367188 20.5625 53.0625 C20.33691406 51.93972656 20.11132812 50.81695312 19.87890625 49.66015625 C19.58886719 48.78230469 19.29882812 47.90445313 19 47 C17.515 46.505 17.515 46.505 16 46 C15.67 46.99 15.34 47.98 15 49 C14.34 49 13.68 49 13 49 C13.31049726 47.56206608 13.6234776 46.1246682 13.9375 44.6875 C14.19853516 43.48673828 14.19853516 43.48673828 14.46484375 42.26171875 C15 40 15 40 16 37 C15.34 36.01 14.68 35.02 14 34 C13.44680269 31.66427803 13.05469475 29.32816851 12.66015625 26.9609375 C12.44230469 26.31382812 12.22445313 25.66671875 12 25 C11.01 24.67 10.02 24.34 9 24 C9.33 23.34 9.66 22.68 10 22 C9.34 22 8.68 22 8 22 C7.67 22.66 7.34 23.32 7 24 C7.2475 23.01 7.495 22.02 7.75 21 C8.47690967 16.26054895 6.39758531 12.9616753 4 9 C2.35 9 0.7 9 -1 9 C-1 5.72724974 -0.70074844 3.153368 0 0 Z " fill="#13488F" transform="translate(410,151)"/>
<path d="M0 0 C0.66 0.66 1.32 1.32 2 2 C-5.27869028 31.28972963 -18.74284478 57.72624515 -38 81 C-38.33 81 -38.66 81 -39 81 C-39.25 75.375 -39.25 75.375 -37 72 C-37.66 71.67 -38.32 71.34 -39 71 C-38.67 70.01 -38.34 69.02 -38 68 C-37.01 68.66 -36.02 69.32 -35 70 C-33.4166747 68.7511573 -33.4166747 68.7511573 -32 67 C-32 65.68 -32 64.36 -32 63 C-31.67 62.01 -31.34 61.02 -31 60 C-31 60.66 -31 61.32 -31 62 C-30.01 62 -29.02 62 -28 62 C-27.87625 61.38125 -27.7525 60.7625 -27.625 60.125 C-27 58 -27 58 -25 56 C-24.59952556 53.67724823 -24.2602896 51.34260643 -24 49 C-21.525 48.505 -21.525 48.505 -19 48 C-19 46.68 -19 45.36 -19 44 C-17.515 43.505 -17.515 43.505 -16 43 C-15.19787372 41.12612784 -15.19787372 41.12612784 -14.8125 38.9375 C-14.65394531 38.20402344 -14.49539063 37.47054687 -14.33203125 36.71484375 C-14.22246094 36.14894531 -14.11289062 35.58304687 -14 35 C-14.66 34.67 -15.32 34.34 -16 34 C-15.34 34 -14.68 34 -14 34 C-14 33.34 -14 32.68 -14 32 C-13.34 32 -12.68 32 -12 32 C-11.71125 31.38125 -11.4225 30.7625 -11.125 30.125 C-10 28 -10 28 -8 26 C-8 24.68 -8 23.36 -8 22 C-7.34 21.67 -6.68 21.34 -6 21 C-6.2475 19.8553125 -6.2475 19.8553125 -6.5 18.6875 C-6.98753647 16.06699147 -7 13.6548679 -7 11 C-6.34 11 -5.68 11 -5 11 C-4.67 9.35 -4.34 7.7 -4 6 C-3.01 5.67 -2.02 5.34 -1 5 C-0.67 3.35 -0.34 1.7 0 0 Z " fill="#114D97" transform="translate(432,292)"/>
<path d="M0 0 C1 2 1 2 0.44140625 4.09375 C0.15136719 4.8878125 -0.13867188 5.681875 -0.4375 6.5 C-1.63616058 9.67598467 -1.63616058 9.67598467 -2 13 C-2.99 13.495 -2.99 13.495 -4 14 C-4 14.99 -4 15.98 -4 17 C-4.99 17.66 -5.98 18.32 -7 19 C-9.36980013 21.95377498 -9.36980013 21.95377498 -9 26 C-9.66 26 -10.32 26 -11 26 C-11 26.99 -11 27.98 -11 29 C-10.34 29 -9.68 29 -9 29 C-10.01812245 31.0362449 -11.03469612 33.06360955 -12.125 35.0625 C-13.20579336 37.10136548 -13.20579336 37.10136548 -13 40 C-14.31665664 41.67987227 -15.65263027 43.34466005 -17 45 C-18.04451438 46.97711651 -19.05698138 48.97250996 -20 51 C-19.01 51.33 -18.02 51.66 -17 52 C-16.9729957 53.45823212 -16.95360213 54.91660675 -16.9375 56.375 C-16.92589844 57.18710938 -16.91429688 57.99921875 -16.90234375 58.8359375 C-17 61 -17 61 -18 63 C-19.485 63.495 -19.485 63.495 -21 64 C-23.00293347 67.00440021 -23.49271626 68.70993945 -24.125 72.1875 C-24.29257813 73.08855469 -24.46015625 73.98960937 -24.6328125 74.91796875 C-24.81457031 75.94857422 -24.81457031 75.94857422 -25 77 C-25.33 77 -25.66 77 -26 77 C-26.72289162 51.40963672 -14.65536715 20.55870006 0 0 Z " fill="#63D6DE" transform="translate(89,151)"/>
<path d="M0 0 C1.83264183 2.41137083 3.5074324 4.80592205 5.125 7.375 C9.65606397 13.75968105 17.14425848 18.04684386 24.76733398 19.54321289 C30.34853377 20.33185611 35.93448224 20.22611451 41.5625 20.25 C42.78130859 20.270625 44.00011719 20.29125 45.25585938 20.3125 C47.01833008 20.32023437 47.01833008 20.32023437 48.81640625 20.328125 C49.88318604 20.3374707 50.94996582 20.34681641 52.04907227 20.35644531 C55.42412063 19.94877007 57.2787314 19.00447757 60 17 C62.52044984 12.87562753 62.02543373 9.61445177 61 5 C60.34 4.01 59.68 3.02 59 2 C61.97 2.99 61.97 2.99 65 4 C64.75427025 10.90500588 64.35927127 15.55091091 60 21 C59.505 22.485 59.505 22.485 59 24 C56.03 24.495 56.03 24.495 53 25 C53 24.34 53 23.68 53 23 C45.08 23.33 37.16 23.66 29 24 C29 23.34 29 22.68 29 22 C24.71 22 20.42 22 16 22 C15.67 21.34 15.34 20.68 15 20 C13.02 20.33 11.04 20.66 9 21 C8.67 18.69 8.34 16.38 8 14 C5.69 13.67 3.38 13.34 1 13 C1 10.36 1 7.72 1 5 C0.01 4.67 -0.98 4.34 -2 4 C-1.34 2.68 -0.68 1.36 0 0 Z " fill="#55B4CB" transform="translate(143,338)"/>
<path d="M0 0 C0.89203125 0.28746094 1.7840625 0.57492188 2.703125 0.87109375 C3.37859375 1.09925781 4.0540625 1.32742187 4.75 1.5625 C4.75 1.8925 4.75 2.2225 4.75 2.5625 C3.1 2.5625 1.45 2.5625 -0.25 2.5625 C-0.25 3.2225 -0.25 3.8825 -0.25 4.5625 C-1.04664063 4.80484375 -1.84328125 5.0471875 -2.6640625 5.296875 C-14.57979056 9.06584008 -22.22622831 14.48802743 -28.25 25.5625 C-29.28714522 28.67393567 -29.45031861 31.05718096 -29.56640625 34.32421875 C-29.60830078 35.44248047 -29.65019531 36.56074219 -29.69335938 37.71289062 C-29.73267578 38.88013672 -29.77199219 40.04738281 -29.8125 41.25 C-29.87727539 43.01827148 -29.87727539 43.01827148 -29.94335938 44.82226562 C-30.04951176 47.73555883 -30.15156242 50.64893757 -30.25 53.5625 C-30.58 53.5625 -30.91 53.5625 -31.25 53.5625 C-31.25 45.6425 -31.25 37.7225 -31.25 29.5625 C-32.9 29.5625 -34.55 29.5625 -36.25 29.5625 C-36.25 27.5825 -36.25 25.6025 -36.25 23.5625 C-34.27 23.5625 -32.29 23.5625 -30.25 23.5625 C-28.30055078 19.91787755 -26.69732303 16.70023807 -26.25 12.5625 C-26.58 11.5725 -26.91 10.5825 -27.25 9.5625 C-24.76656752 8.79836693 -22.93967882 8.57570516 -20.3125 8.6875 C-16.74348526 8.54182593 -15.0310617 7.77099018 -12.25 5.5625 C-12.25 4.5725 -12.25 3.5825 -12.25 2.5625 C-11.59 2.5625 -10.93 2.5625 -10.25 2.5625 C-9.92 1.5725 -9.59 0.5825 -9.25 -0.4375 C-5.86201059 -1.95599075 -3.4175025 -1.12417845 0 0 Z " fill="#56B6CD" transform="translate(172.25,136.4375)"/>
<path d="M0 0 C0.99 0 1.98 0 3 0 C3 0.66 3 1.32 3 2 C6.69541586 2.95024979 9.30458414 2.95024979 13 2 C13 3.65 13 5.3 13 7 C14.32 7.33 15.64 7.66 17 8 C17 8.99 17 9.98 17 11 C18.32 11.33 19.64 11.66 21 12 C20.67 13.98 20.34 15.96 20 18 C19.34 17.34 18.68 16.68 18 16 C16.4599774 17.5400226 16.87034217 18.97283987 16.8671875 21.11328125 C16.86589844 21.94923828 16.86460937 22.78519531 16.86328125 23.64648438 C16.86908203 24.96616211 16.86908203 24.96616211 16.875 26.3125 C16.87113281 27.18068359 16.86726563 28.04886719 16.86328125 28.94335938 C16.86521484 30.2030957 16.86521484 30.2030957 16.8671875 31.48828125 C16.86831543 32.25696533 16.86944336 33.02564941 16.87060547 33.81762695 C16.99974726 35.9957373 17.40087295 37.9066251 18 40 C18.66 39.34 19.32 38.68 20 38 C20.33 40.64 20.66 43.28 21 46 C19.515 46.495 19.515 46.495 18 47 C15.15930178 42.99137047 14.63196414 40.22278378 14.62890625 35.34375 C14.61150391 34.07402344 14.59410156 32.80429687 14.57617188 31.49609375 C14.56705733 28.83204175 14.56184896 26.16797352 14.56054688 23.50390625 C14.53250977 21.59931641 14.53250977 21.59931641 14.50390625 19.65625 C14.50112671 17.92084961 14.50112671 17.92084961 14.49829102 16.15039062 C13.89501882 12.33626794 12.7306785 10.68938338 10 8 C5.9806288 6.8090752 3.73792774 6.75875439 -0.25 8.0625 C-3.48638012 10.3426769 -4.54546316 12.3636579 -6 16 C-6.99 16 -7.98 16 -9 16 C-9.66 14.35 -10.32 12.7 -11 11 C-5.375 7 -5.375 7 -2 7 C-2.33 6.01 -2.66 5.02 -3 4 C-2.67 3.34 -2.34 2.68 -2 2 C-1.34 2 -0.68 2 0 2 C0 1.34 0 0.68 0 0 Z " fill="#52B7D0" transform="translate(147,288)"/>
<path d="M0 0 C4.75 -0.125 4.75 -0.125 7 1 C7 1.66 7 2.32 7 3 C8.32 3.33 9.64 3.66 11 4 C-1.99553817 11.18159075 -14.8864718 17.35922164 -29 22 C-30.07765625 22.35964844 -31.1553125 22.71929687 -32.265625 23.08984375 C-36.13650722 24.31788679 -38.88485967 25 -43 25 C-43 24.34 -43 23.68 -43 23 C-40.69 22.34 -38.38 21.68 -36 21 C-36.33 19.68 -36.66 18.36 -37 17 C-36.01 17.33 -35.02 17.66 -34 18 C-32.32337342 17.72105162 -30.65747602 17.37638031 -29 17 C-26.56441124 16.63292007 -24.12674382 16.27945007 -21.6875 15.9375 C-20.43324219 15.76089844 -19.17898438 15.58429688 -17.88671875 15.40234375 C-16.93410156 15.26957031 -15.98148437 15.13679688 -15 15 C-15.33 12.69 -15.66 10.38 -16 8 C-14.0625 8.375 -14.0625 8.375 -12 9 C-11.67 9.66 -11.34 10.32 -11 11 C-10.443125 10.505 -9.88625 10.01 -9.3125 9.5 C-6.61837017 7.75245633 -5.14624993 7.73781251 -2 8 C-1.855625 7.4225 -1.71125 6.845 -1.5625 6.25 C-1.04166667 4.16666667 -0.52083333 2.08333333 0 0 Z " fill="#2872AE" transform="translate(337,408)"/>
<path d="M0 0 C0 0.33 0 0.66 0 1 C-7.26 1.99 -14.52 2.98 -22 4 C-22.66 5.98 -23.32 7.96 -24 10 C-30.50714757 11.25137453 -30.50714757 11.25137453 -32.9453125 10.0078125 C-35.45256227 8.77802079 -36.87879286 8.90098371 -39.625 9.25 C-40.40101563 9.33765625 -41.17703125 9.4253125 -41.9765625 9.515625 C-44.21325027 9.86454357 -44.21325027 9.86454357 -46 12 C-46.6425235 14.06874034 -46.6425235 14.06874034 -47 16 C-50.75 17.125 -50.75 17.125 -53 16 C-53.33 15.67 -53.66 15.34 -54 15 C-54.598125 15.350625 -55.19625 15.70125 -55.8125 16.0625 C-58 17 -58 17 -61 16 C-60.50390625 14.1875 -60.50390625 14.1875 -59 12 C-56.28370413 10.79942724 -53.76006138 9.86189556 -50.9375 9 C-50.13473633 8.74508789 -49.33197266 8.49017578 -48.50488281 8.22753906 C-32.85530019 3.36654454 -16.48370872 -0.68365612 0 0 Z " fill="#47A5C8" transform="translate(239,62)"/>
<path d="M0 0 C0.66 0.33 1.32 0.66 2 1 C-0.63185447 3.32222453 -2.6235681 4.88236503 -6 5.9375 C-9.66047103 7.23391682 -11.43241693 9.13897887 -14 12 C-14.33 12.33 -14.66 12.66 -15 13 C-16.093125 12.938125 -17.18625 12.87625 -18.3125 12.8125 C-21.99200841 12.65319986 -21.99200841 12.65319986 -24.3125 14.75 C-25.83716579 16.78288772 -27.00106153 18.66914357 -28 21 C-29.98 21 -31.96 21 -34 21 C-34 22.65 -34 24.3 -34 26 C-34.78375 25.938125 -35.5675 25.87625 -36.375 25.8125 C-37.674375 25.9053125 -37.674375 25.9053125 -39 26 C-39.66 26.99 -40.32 27.98 -41 29 C-41.66 29 -42.32 29 -43 29 C-43.66 29.99 -44.32 30.98 -45 32 C-45.763125 32.12375 -46.52625 32.2475 -47.3125 32.375 C-50.97824124 33.22749796 -52.53367055 35.25180433 -55 38 C-55.66 37.67 -56.32 37.34 -57 37 C-52.07752347 31.78424854 -46.84889977 27.35272359 -41.0625 23.125 C-40.23419678 22.51785156 -39.40589355 21.91070312 -38.55249023 21.28515625 C-31.03150222 15.86400219 -23.23327927 11.24259157 -15 7 C-14.40477539 6.690625 -13.80955078 6.38125 -13.19628906 6.0625 C-4.16577321 1.38859107 -4.16577321 1.38859107 0 0 Z " fill="#50B9D0" transform="translate(178,75)"/>
<path d="M0 0 C0.99 0.99 1.98 1.98 3 3 C0.32521756 4.6627026 -1.9995144 5.99983813 -5 7 C-4.505 10.465 -4.505 10.465 -4 14 C-4.99 14 -5.98 14 -7 14 C-10.04312885 14.11686998 -13.083788 14.27905427 -16.125 14.4375 C-16.96160156 14.47681641 -17.79820312 14.51613281 -18.66015625 14.55664062 C-22.65438596 14.38541971 -22.65438596 14.38541971 -26 16 C-32.86461198 17.40094122 -39.72127056 16.90435822 -46.64086914 16.31884766 C-50.43666885 15.90601941 -50.43666885 15.90601941 -54 17 C-54 16.34 -54 15.68 -54 15 C-55.65 14.67 -57.3 14.34 -59 14 C-58.67 13.01 -58.34 12.02 -58 11 C-57.46334717 11.32452148 -56.92669434 11.64904297 -56.3737793 11.98339844 C-53.44440035 13.23794271 -51.20335045 13.25880375 -48.01953125 13.265625 C-46.85486328 13.26820313 -45.69019531 13.27078125 -44.49023438 13.2734375 C-43.27658203 13.26570313 -42.06292969 13.25796875 -40.8125 13.25 C-39.02102539 13.26160156 -39.02102539 13.26160156 -37.19335938 13.2734375 C-27.40158575 13.25188159 -19.71840256 12.34846277 -11.0625 7.5625 C-9.96035156 6.96566406 -8.85820312 6.36882812 -7.72265625 5.75390625 C-4.79423702 4.12369308 -4.79423702 4.12369308 -3 1 C-2.01 0.67 -1.02 0.34 0 0 Z " fill="#186DB7" transform="translate(356,345)"/>
<path d="M0 0 C0.33 0.66 0.66 1.32 1 2 C2.32 2 3.64 2 5 2 C5.33 1.34 5.66 0.68 6 0 C6 0.66 6 1.32 6 2 C6.66 2 7.32 2 8 2 C8 2.99 8 3.98 8 5 C6.329375 5.86625 6.329375 5.86625 4.625 6.75 C2.51915482 7.97769921 1.09406638 8.89025589 -0.5 10.75 C-1.28939346 14.30227059 -1.14104414 17.53407841 0 21 C2.43608793 23.38388916 2.43608793 23.38388916 5 25 C5 25.66 5 26.32 5 27 C5.99 27 6.98 27 8 27 C8 28.65 8 30.3 8 32 C6 33 6 33 3.4375 32.375 C1 31 1 31 0.25 28.5 C0.1675 27.675 0.085 26.85 0 26 C-0.33 25.34 -0.66 24.68 -1 24 C-2.32 24 -3.64 24 -5 24 C-5.33 23.34 -5.66 22.68 -6 22 C-6.66 22 -7.32 22 -8 22 C-8.28522447 18.62167463 -8.44690697 15.36815254 -8 12 C-5.6875 10.0625 -5.6875 10.0625 -3 9 C-1.12359581 7.79081118 -1.12359581 7.79081118 0 6 C0.25048636 2.87450983 0.25048636 2.87450983 0 0 Z " fill="#317FB1" transform="translate(296,136)"/>
<path d="M0 0 C-0.33 0.66 -0.66 1.32 -1 2 C-0.13435776 4.2634282 -0.13435776 4.2634282 2.5390625 5.1171875 C6.60413155 6.15410127 10.20733368 6.22297407 14.375 6.125 C15.11105469 6.11597656 15.84710938 6.10695313 16.60546875 6.09765625 C18.4037888 6.07430144 20.20193911 6.03843836 22 6 C22.26941406 6.96421875 22.53882813 7.9284375 22.81640625 8.921875 C23.40228516 10.44554687 23.40228516 10.44554687 24 12 C26.51672129 13.07094523 28.35066224 13.55528973 31 14 C31.86625 14.18304688 32.7325 14.36609375 33.625 14.5546875 C39.18185201 15.6814936 44.33627033 16.21372565 50 16 C50.495 17.485 50.495 17.485 51 19 C30.39026146 18.53921316 6.86250237 11.20042898 -11 1 C-11 0.34 -11 -0.32 -11 -1 C-7.50388094 -2.74805953 -3.65464422 -0.94750035 0 0 Z " fill="#46AFD0" transform="translate(176,418)"/>
<path d="M0 0 C14.24974635 5.30872903 27.76837648 16.91044532 38 28 C36.02 28.99 36.02 28.99 34 30 C34 29.34 34 28.68 34 28 C33.34 27.67 32.68 27.34 32 27 C31.38125 26.67 30.7625 26.34 30.125 26 C28.08426452 25.03965389 26.19881308 24.47117423 24 24 C24 21.69 24 19.38 24 17 C23.0925 17.12375 22.185 17.2475 21.25 17.375 C19.64125 17.189375 19.64125 17.189375 18 17 C16.61061923 15.03852126 15.2739589 13.03833424 14 11 C12.68 11 11.36 11 10 11 C10 10.34 10 9.68 10 9 C6.7 8.34 3.4 7.68 0 7 C0 4.69 0 2.38 0 0 Z " fill="#1467B2" transform="translate(344,87)"/>
<path d="M0 0 C-0.59167969 0.53367188 -1.18335938 1.06734375 -1.79296875 1.6171875 C-13.70740398 12.85135319 -16.08402969 24.18745999 -17 40 C-18.98 39.67 -20.96 39.34 -23 39 C-22.979375 37.7625 -22.95875 36.525 -22.9375 35.25 C-22.924681 32.83148285 -23.00632011 30.97598357 -23.625 28.625 C-23.74875 28.08875 -23.8725 27.5525 -24 27 C-22 25 -22 25 -17 24 C-16.34 20.7 -15.68 17.4 -15 14 C-14.34 14 -13.68 14 -13 14 C-12.731875 13.113125 -12.46375 12.22625 -12.1875 11.3125 C-11 8 -11 8 -9.3125 5.3125 C-8.879375 4.549375 -8.44625 3.78625 -8 3 C-8.33 2.01 -8.66 1.02 -9 0 C-3.375 -1.125 -3.375 -1.125 0 0 Z " fill="#3FA6CB" transform="translate(224,216)"/>
<path d="M0 0 C2.46686338 2.2479057 3.96631011 4.48601861 5.5234375 7.4296875 C5.98524414 8.30141602 6.44705078 9.17314453 6.92285156 10.07128906 C20.24783697 35.79827837 20.24783697 35.79827837 18 46 C17.34 46 16.68 46 16 46 C15.67 46.99 15.34 47.98 15 49 C14.34 49 13.68 49 13 49 C13.31049726 47.56206608 13.6234776 46.1246682 13.9375 44.6875 C14.19853516 43.48673828 14.19853516 43.48673828 14.46484375 42.26171875 C15 40 15 40 16 37 C15.34 36.01 14.68 35.02 14 34 C13.44680269 31.66427803 13.05469475 29.32816851 12.66015625 26.9609375 C12.44230469 26.31382812 12.22445313 25.66671875 12 25 C11.01 24.67 10.02 24.34 9 24 C9.33 23.34 9.66 22.68 10 22 C9.34 22 8.68 22 8 22 C7.67 22.66 7.34 23.32 7 24 C7.2475 23.01 7.495 22.02 7.75 21 C8.47690967 16.26054895 6.39758531 12.9616753 4 9 C2.35 9 0.7 9 -1 9 C-1 5.72724974 -0.70074844 3.153368 0 0 Z " fill="#11509E" transform="translate(410,151)"/>
<path d="M0 0 C12.52524589 3.02516532 24.40708233 7.54010697 35.9375 13.25 C36.97620239 13.7617981 36.97620239 13.7617981 38.03588867 14.28393555 C42.87276686 16.74553372 42.87276686 16.74553372 44 19 C43.0925 18.79375 42.185 18.5875 41.25 18.375 C38.10656446 17.70092314 38.10656446 17.70092314 36 19.0625 C34 20 34 20 30.75 19.125 C29.8425 18.75375 28.935 18.3825 28 18 C27.67 16.02 27.34 14.04 27 12 C26.443125 11.896875 25.88625 11.79375 25.3125 11.6875 C22.55823422 10.86866423 20.41272343 9.54146219 18 8 C18.33 8.99 18.66 9.98 19 11 C17.68 11.33 16.36 11.66 15 12 C15.33 11.01 15.66 10.02 16 9 C15.01 8.34 14.02 7.68 13 7 C13 6.34 13 5.68 13 5 C12.154375 4.896875 11.30875 4.79375 10.4375 4.6875 C6.58557299 3.9171146 3.55924969 2.63725486 0 1 C0 0.67 0 0.34 0 0 Z " fill="#2C76AD" transform="translate(300,68)"/>
<path d="M0 0 C1.32 0 2.64 0 4 0 C4 0.66 4 1.32 4 2 C4.66 2 5.32 2 6 2 C6 2.66 6 3.32 6 4 C6.99 4 7.98 4 9 4 C8.505 2.515 8.505 2.515 8 1 C11 2 11 2 12 4 C12.0396713 5.66619446 12.04384447 7.33391013 12 9 C8.78160065 8.5172401 5.74986072 7.92588466 2.625 7 C-3.32461428 5.49340413 -9.39454501 5.53602299 -15.5 5.375 C-16.70398438 5.33632812 -17.90796875 5.29765625 -19.1484375 5.2578125 C-22.09881119 5.16414984 -25.04918856 5.07842476 -28 5 C-28 4.34 -28 3.68 -28 3 C-20.32413419 1.26050523 -12.58055039 1.6719219 -4.875 3.07421875 C-2.31284561 2.97280014 -1.7545317 1.77737717 0 0 Z " fill="#266EAA" transform="translate(332,136)"/>
<path d="M0 0 C2.04045964 1.26404113 3.56096881 2.56940498 5.23876953 4.28076172 C5.81240234 4.86083984 6.38603516 5.44091797 6.97705078 6.03857422 C7.56357422 6.64185547 8.15009766 7.24513672 8.75439453 7.86669922 C9.35638672 8.47771484 9.95837891 9.08873047 10.57861328 9.71826172 C12.05844759 11.22158546 13.53204129 12.73104778 15.00439453 14.24169922 C13.19189453 14.86669922 13.19189453 14.86669922 11.00439453 15.24169922 C7.52522271 12.92225134 6.71009687 10.97799958 5.00439453 7.24169922 C2.69439453 7.57169922 0.38439453 7.90169922 -1.99560547 8.24169922 C-2.32560547 6.92169922 -2.65560547 5.60169922 -2.99560547 4.24169922 C-3.65560547 4.24169922 -4.31560547 4.24169922 -4.99560547 4.24169922 C-5.32560547 5.56169922 -5.65560547 6.88169922 -5.99560547 8.24169922 C-7.31560547 8.24169922 -8.63560547 8.24169922 -9.99560547 8.24169922 C-9.99560547 7.25169922 -9.99560547 6.26169922 -9.99560547 5.24169922 C-12.30560547 5.57169922 -14.61560547 5.90169922 -16.99560547 6.24169922 C-14.44448249 3.69057624 -11.96747541 2.83044719 -8.62060547 1.49169922 C-7.47849609 1.02248047 -6.33638672 0.55326172 -5.15966797 0.06982422 C-1.99560547 -0.75830078 -1.99560547 -0.75830078 0 0 Z " fill="#2F8BC2" transform="translate(272.99560546875,287.75830078125)"/>
<path d="M0 0 C2 2 2 2 2.1953125 5.47729492 C2.18138786 6.97847125 2.15719058 8.47957301 2.125 9.98046875 C2.11742676 10.78551346 2.10985352 11.59055817 2.10205078 12.41999817 C2.06952271 15.86123122 2.01421288 19.30198677 1.95898438 22.74291992 C1.00252909 40.29072253 1.00252909 40.29072253 5 57 C5.06996014 58.70702735 5.08440154 60.41668003 5.0625 62.125 C5.05347656 63.03507812 5.04445313 63.94515625 5.03515625 64.8828125 C5.02355469 65.58148438 5.01195313 66.28015625 5 67 C-4.77824647 49.5209367 -2.89112489 19.25066085 0 0 Z " fill="#7FD3DA" transform="translate(62,228)"/>
<path d="M0 0 C10.85680231 0.51529831 22.47257932 1.28354759 32 7 C31.34 7.66 30.68 8.32 30 9 C28.68 9 27.36 9 26 9 C24.2365625 9.061875 24.2365625 9.061875 22.4375 9.125 C19 9 19 9 16 7 C15.01 7 14.02 7 13 7 C10.3125 5.5625 10.3125 5.5625 8 4 C8 3.67 8 3.34 8 3 C5.36 2.67 2.72 2.34 0 2 C0 1.34 0 0.68 0 0 Z " fill="#2F84B9" transform="translate(272,63)"/>
<path d="M0 0 C-0.33 0.99 -0.66 1.98 -1 3 C-1.66 2.67 -2.32 2.34 -3 2 C-2.525625 2.433125 -2.05125 2.86625 -1.5625 3.3125 C0 5 0 5 1 8 C3.31 8.33 5.62 8.66 8 9 C8 12.66666667 8 16.33333333 8 20 C8.66 20 9.32 20 10 20 C9.01 22.475 9.01 22.475 8 25 C7.67 25 7.34 25 7 25 C6.67 22.69 6.34 20.38 6 18 C5.34 18 4.68 18 4 18 C2.88671875 16.42578125 2.88671875 16.42578125 1.6875 14.3125 C-0.49532694 10.67231507 -2.86525696 7.89360896 -6 5 C-7.33333333 3.66666667 -8.66666667 2.33333333 -10 1 C-6.52674819 -0.1577506 -3.63932552 -0.06866652 0 0 Z " fill="#2269AA" transform="translate(352,144)"/>
<path d="M0 0 C2 2 2 2 2 5 C0.68 4.67 -0.64 4.34 -2 4 C-2 4.66 -2 5.32 -2 6 C-3.98 6.33 -5.96 6.66 -8 7 C-8 7.66 -8 8.32 -8 9 C-7.34 9 -6.68 9 -6 9 C-6 10.65 -6 12.3 -6 14 C-6.99 14.33 -7.98 14.66 -9 15 C-9.33 14.67 -9.66 14.34 -10 14 C-10.99 15.485 -10.99 15.485 -12 17 C-14.625 17.1875 -14.625 17.1875 -17 17 C-18 15 -18 15 -17.83203125 13.0625 C-16.70607671 10.27140142 -15.24343839 9.53941952 -12.6875 8 C-9.94602811 6.29525561 -7.92464973 4.92057675 -5.6875 2.5625 C-5.130625 2.046875 -4.57375 1.53125 -4 1 C-1.75 1.25 -1.75 1.25 0 2 C0 1.34 0 0.68 0 0 Z " fill="#50C6DB" transform="translate(133,105)"/>
<path d="M0 0 C0.66 0 1.32 0 2 0 C2.66 1.98 3.32 3.96 4 6 C6.31 6 8.62 6 11 6 C11 6.66 11 7.32 11 8 C13.11785113 9.11785113 13.11785113 9.11785113 16 10 C16 11.32 16 12.64 16 14 C17.32 14 18.64 14 20 14 C20.33 14.66 20.66 15.32 21 16 C22.65 16 24.3 16 26 16 C26.33 17.65 26.66 19.3 27 21 C28.98 21.33 30.96 21.66 33 22 C32.67 22.66 32.34 23.32 32 24 C27.0694641 22.56855409 23.02932263 20.46917078 18.6875 17.8125 C18.03104492 17.41321289 17.37458984 17.01392578 16.69824219 16.60253906 C1.95871466 7.50917225 1.95871466 7.50917225 -1 1 C-0.67 0.67 -0.34 0.34 0 0 Z " fill="#54BCD2" transform="translate(133,394)"/>
<path d="M0 0 C-0.99 2.97 -1.98 5.94 -3 9 C-2.34 9 -1.68 9 -1 9 C-1 10.32 -1 11.64 -1 13 C-2.98 13 -4.96 13 -7 13 C-7 12.34 -7 11.68 -7 11 C-7.78375 11.20625 -8.5675 11.4125 -9.375 11.625 C-10.24125 11.74875 -11.1075 11.8725 -12 12 C-12.66 11.34 -13.32 10.68 -14 10 C-13.34 9.01 -12.68 8.02 -12 7 C-11.34 7 -10.68 7 -10 7 C-9.9175 6.401875 -9.835 5.80375 -9.75 5.1875 C-8.10509656 0.38986496 -4.70509054 -0.39209088 0 0 Z " fill="#41B4D7" transform="translate(177,163)"/>
<path d="M0 0 C-0.53109375 0.24234375 -1.0621875 0.4846875 -1.609375 0.734375 C-5.69105982 2.67094079 -9.15975851 4.36449089 -12 8 C-12.7872678 10.1381966 -12.7872678 10.1381966 -13 12 C-13.66 12 -14.32 12 -15 12 C-15.33 16.29 -15.66 20.58 -16 25 C-15.34 25 -14.68 25 -14 25 C-13.773125 26.051875 -13.54625 27.10375 -13.3125 28.1875 C-12.13634576 32.22236245 -10.35861664 34.38774262 -7 37 C-4.65885067 37.93257401 -2.47920905 38.46526864 0 39 C0 39.66 0 40.32 0 41 C3.63 41 7.26 41 11 41 C11 41.33 11 41.66 11 42 C3.51217209 42.44926967 -2.83674425 42.70498542 -9 38 C-13.53441406 33.72874389 -16.58593548 29.49066021 -17.3359375 23.16796875 C-17.4223794 16.57245169 -17.11070752 11.34987733 -13 6 C-5.48757816 -1.64627345 -5.48757816 -1.64627345 0 0 Z " fill="#4895B7" transform="translate(245,230)"/>
<path d="M0 0 C1.2375 0.2475 1.2375 0.2475 2.5 0.5 C5.21152596 0.88736085 7.54013306 1.0395601 10.25 1 C14 1 14 1 16 2 C16.33 1.34 16.66 0.68 17 0 C18.65 0.66 20.3 1.32 22 2 C20.98046875 3.45703125 20.98046875 3.45703125 19 5 C16.37060795 5.37644848 13.94927528 5.60133087 11.3125 5.6875 C10.61060547 5.72166016 9.90871094 5.75582031 9.18554688 5.79101562 C7.45758613 5.87329947 5.72881928 5.9383324 4 6 C4 7.32 4 8.64 4 10 C2.68 9.67 1.36 9.34 0 9 C0 6.03 0 3.06 0 0 Z " fill="#156FBD" transform="translate(336,288)"/>
<path d="M0 0 C0.70108887 0.32452148 1.40217773 0.64904297 2.12451172 0.98339844 C5.27469241 2.09711489 7.67470023 2.25835993 11.0078125 2.265625 C12.73644531 2.26949219 12.73644531 2.26949219 14.5 2.2734375 C16.294375 2.26183594 16.294375 2.26183594 18.125 2.25 C19.88457031 2.26160156 19.88457031 2.26160156 21.6796875 2.2734375 C28.9997943 2.2571706 35.85415466 1.59685727 43 0 C41.3125 2 41.3125 2 39 4 C36.3125 4.1875 36.3125 4.1875 34 4 C33.67 4.33 33.34 4.66 33 5 C26.13538802 6.40094122 19.27872944 5.90435822 12.35913086 5.31884766 C8.56333115 4.90601941 8.56333115 4.90601941 5 6 C5 5.34 5 4.68 5 4 C3.35 3.67 1.7 3.34 0 3 C0 2.01 0 1.02 0 0 Z " fill="#2F79B1" transform="translate(297,356)"/>
<path d="M0 0 C4.35403865 -0.08755672 8.70784877 -0.14057969 13.0625 -0.1875 C14.29162109 -0.21263672 15.52074219 -0.23777344 16.78710938 -0.26367188 C28.91858239 -0.36177004 28.91858239 -0.36177004 34 3 C36.63133964 7.30276349 37.36453981 10.48221306 37.29296875 15.4921875 C37.2784668 17.29042969 37.2784668 17.29042969 37.26367188 19.125 C37.23853516 20.3625 37.21339844 21.6 37.1875 22.875 C37.16719727 24.76605469 37.16719727 24.76605469 37.14648438 26.6953125 C37.11123435 29.79731454 37.06195504 32.89843534 37 36 C36.67 36 36.34 36 36 36 C35.97494385 35.26885986 35.9498877 34.53771973 35.92407227 33.78442383 C35.80777359 30.46028583 35.68520072 27.13640759 35.5625 23.8125 C35.52318359 22.66201172 35.48386719 21.51152344 35.44335938 20.32617188 C35.40146484 19.21435547 35.35957031 18.10253906 35.31640625 16.95703125 C35.26141968 15.42526245 35.26141968 15.42526245 35.20532227 13.86254883 C35.01159937 11.16171537 34.59548047 8.63833872 34 6 C32.63875 5.566875 32.63875 5.566875 31.25 5.125 C28 4 28 4 26.14941406 2.95556641 C23.46327662 1.76138854 21.29375402 1.67958789 18.359375 1.5859375 C16.75449219 1.52792969 16.75449219 1.52792969 15.1171875 1.46875 C13.45042969 1.42234375 13.45042969 1.42234375 11.75 1.375 C10.62335938 1.33632812 9.49671875 1.29765625 8.3359375 1.2578125 C5.55745452 1.16362664 2.77897666 1.07800414 0 1 C0 0.67 0 0.34 0 0 Z " fill="#286DA6" transform="translate(301,162)"/>
<path d="M0 0 C2.64 0 5.28 0 8 0 C8.79953138 3.28696233 9.09658936 4.71023192 8 8 C9.84566588 13.35877376 9.84566588 13.35877376 14 17 C13.67 18.32 13.34 19.64 13 21 C0 5.07692308 0 5.07692308 0 0 Z " fill="#6CCCD4" transform="translate(87,344)"/>
<path d="M0 0 C0 7.60604151 -7.85463664 15.27926291 -12.375 21.1875 C-12.81569824 21.76419434 -13.25639648 22.34088867 -13.71044922 22.93505859 C-14.78053783 24.31100619 -15.88683767 25.65866072 -17 27 C-17.33 27 -17.66 27 -18 27 C-18.25 21.375 -18.25 21.375 -16 18 C-16.66 17.67 -17.32 17.34 -18 17 C-17.505 15.515 -17.505 15.515 -17 14 C-15.515 14.99 -15.515 14.99 -14 16 C-13.401875 15.34 -12.80375 14.68 -12.1875 14 C-10 12 -10 12 -7 12 C-6.6596875 10.9790625 -6.6596875 10.9790625 -6.3125 9.9375 C-4.64427643 6.20385676 -2.44270392 3.27836579 0 0 Z " fill="#1557A1" transform="translate(411,346)"/>
<path d="M0 0 C4.08627439 3.87002994 7.43631528 8.02069763 10.75 12.5625 C11.24371094 13.22185547 11.73742187 13.88121094 12.24609375 14.56054688 C12.71660156 15.20185547 13.18710937 15.84316406 13.671875 16.50390625 C14.30754395 17.36737671 14.30754395 17.36737671 14.95605469 18.24829102 C16.08871639 20.14886345 16.57011511 21.8396212 17 24 C15.35 23.67 13.7 23.34 12 23 C11.67 22.01 11.34 21.02 11 20 C10.01 19.67 9.02 19.34 8 19 C7.87625 17.39125 7.87625 17.39125 7.75 15.75 C6.92750128 11.63750639 6.05586492 10.6738818 3 8 C2.67 7.01 2.34 6.02 2 5 C1.34 4.67 0.68 4.34 0 4 C0 2.68 0 1.36 0 0 Z " fill="#1256A2" transform="translate(393,127)"/>
<path d="M0 0 C0.99 0 1.98 0 3 0 C2.77008524 5.6329115 1.46313024 8.10259465 -2.3828125 12.16015625 C-4.59411316 14.67591135 -6.1299072 17.46557421 -7.7265625 20.3984375 C-9.32414999 22.4076733 -10.50866302 22.63208104 -13 23 C-13 19 -13 19 -12 16 C-12 16.66 -12 17.32 -12 18 C-11.01 18 -10.02 18 -9 18 C-8.87625 17.38125 -8.7525 16.7625 -8.625 16.125 C-8 14 -8 14 -6 12 C-5.59952556 9.67724823 -5.2602896 7.34260643 -5 5 C-3.35 4.67 -1.7 4.34 0 4 C0 2.68 0 1.36 0 0 Z " fill="#0955B4" transform="translate(413,336)"/>
<path d="M0 0 C0.99 0.495 0.99 0.495 2 1 C2 1.66 2 2.32 2 3 C2.66 3 3.32 3 4 3 C4.99 5.31 5.98 7.62 7 10 C8.32 9.34 9.64 8.68 11 8 C11 9.32 11 10.64 11 12 C10.34 12 9.68 12 9 12 C9.66 13.98 10.32 15.96 11 18 C11.66 18 12.32 18 13 18 C12.67 19.98 12.34 21.96 12 24 C9.5230138 21.76425846 8.1555457 19.63163521 6.73828125 16.62109375 C6.34189453 15.78255859 5.94550781 14.94402344 5.53710938 14.08007812 C4.93092773 12.77200195 4.93092773 12.77200195 4.3125 11.4375 C3.68891602 10.12362305 3.68891602 10.12362305 3.05273438 8.78320312 C0 2.27170567 0 2.27170567 0 0 Z " fill="#6BD0DB" transform="translate(75,320)"/>
<path d="M0 0 C1.98 0.66 3.96 1.32 6 2 C5.75427025 8.90500588 5.35927127 13.55091091 1 19 C0.67 19.99 0.34 20.98 0 22 C-1.98 22.33 -3.96 22.66 -6 23 C-6 22.34 -6 21.68 -6 21 C-9.63 21 -13.26 21 -17 21 C-17 20.67 -17 20.34 -17 20 C-16.11957031 19.89042969 -15.23914063 19.78085937 -14.33203125 19.66796875 C-13.17058594 19.50941406 -12.00914062 19.35085938 -10.8125 19.1875 C-9.66394531 19.03667969 -8.51539063 18.88585937 -7.33203125 18.73046875 C-3.94440675 17.9878125 -1.79312305 17.02539302 1 15 C3.52044984 10.87562753 3.02543373 7.61445177 2 3 C1.34 2.01 0.68 1.02 0 0 Z " fill="#40A9CD" transform="translate(202,340)"/>
<path d="M0 0 C-0.639375 0.28875 -1.27875 0.5775 -1.9375 0.875 C-4.15206079 1.82823451 -4.15206079 1.82823451 -5 4 C-7.60134928 4.96999465 -10.15905329 5.82641236 -12.8125 6.625 C-13.90014648 6.96917969 -13.90014648 6.96917969 -15.00976562 7.3203125 C-18.51696606 8.39846378 -21.30136712 9 -25 9 C-25 8.34 -25 7.68 -25 7 C-22.69 6.34 -20.38 5.68 -18 5 C-18.33 3.68 -18.66 2.36 -19 1 C-18.01 1.33 -17.02 1.66 -16 2 C-14.3222433 1.72793135 -12.65549531 1.38499891 -11 1 C-7.26777541 0.30020789 -3.79852505 -0.11172132 0 0 Z " fill="#2B7DB8" transform="translate(319,424)"/>
<path d="M0 0 C1.98 0.495 1.98 0.495 4 1 C3.70703125 2.98567708 3.4140625 4.97135417 3.12109375 6.95703125 C2.86095201 9.2025342 2.86095201 9.2025342 4 12 C4.99 12.33 5.98 12.66 7 13 C6.67 14.65 6.34 16.3 6 18 C5.01 17.67 4.02 17.34 3 17 C3 16.01 3 15.02 3 14 C2.67 14.99 2.34 15.98 2 17 C1.01 17 0.02 17 -1 17 C-0.505 15.515 -0.505 15.515 0 14 C-0.38932856 11.85744207 -0.38932856 11.85744207 -1 10 C-0.34 10 0.32 10 1 10 C0.4740625 8.9171875 0.4740625 8.9171875 -0.0625 7.8125 C-1.10409017 4.6877295 -0.89096572 3.11838004 0 0 Z " fill="#2483C2" transform="translate(289,342)"/>
<path d="M0 0 C-0.33 1.98 -0.66 3.96 -1 6 C-5.64758943 6.8937672 -7.85587853 7.07206073 -12 5 C-15.68203915 5.31126713 -15.68203915 5.31126713 -19 6 C-16.54025158 2.31037737 -15.39786948 2.29370818 -11.1875 1.3125 C-10.14980469 1.06113281 -9.11210937 0.80976562 -8.04296875 0.55078125 C-5.27421455 0.04963319 -2.80344253 -0.10882124 0 0 Z " fill="#39A5CE" transform="translate(216,66)"/>
<path d="M0 0 C0.33 0.99 0.66 1.98 1 3 C-12.86 2.505 -12.86 2.505 -27 2 C-27 1.34 -27 0.68 -27 0 C-5.69134253 -1.89711418 -5.69134253 -1.89711418 0 0 Z " fill="#54AAC8" transform="translate(199,139)"/>
<path d="M0 0 C2.31 0 4.62 0 7 0 C6.67 9.9 6.34 19.8 6 30 C5.67 30 5.34 30 5 30 C5 22.08 5 14.16 5 6 C3.35 6 1.7 6 0 6 C0 4.02 0 2.04 0 0 Z " fill="#32D8E4" transform="translate(136,160)"/>
<path d="M0 0 C-0.59167969 0.53367188 -1.18335938 1.06734375 -1.79296875 1.6171875 C-9.68083424 9.05468547 -13.84232981 16.40780087 -16 27 C-16.33 27 -16.66 27 -17 27 C-16.85769192 25.58297487 -16.71099254 24.1663904 -16.5625 22.75 C-16.48128906 21.96109375 -16.40007812 21.1721875 -16.31640625 20.359375 C-16.02365007 18.17635361 -15.57935581 16.1226818 -15 14 C-14.34 14 -13.68 14 -13 14 C-12.5978125 12.6696875 -12.5978125 12.6696875 -12.1875 11.3125 C-11 8 -11 8 -9.3125 5.3125 C-8.879375 4.549375 -8.44625 3.78625 -8 3 C-8.33 2.01 -8.66 1.02 -9 0 C-3.375 -1.125 -3.375 -1.125 0 0 Z " fill="#509BBD" transform="translate(224,216)"/>
<path d="M0 0 C0.8971875 0.309375 0.8971875 0.309375 1.8125 0.625 C1.173125 0.8725 0.53375 1.12 -0.125 1.375 C-2.36299168 2.41326429 -2.36299168 2.41326429 -2.75 4.5625 C-2.894375 5.243125 -3.03875 5.92375 -3.1875 6.625 C-3.92770386 7.24628784 -3.92770386 7.24628784 -4.68286133 7.88012695 C-6.84936605 10.39254124 -6.619206 12.32494605 -6.69921875 15.60546875 C-6.73466797 16.76884766 -6.77011719 17.93222656 -6.80664062 19.13085938 C-6.82919922 20.34580078 -6.85175781 21.56074219 -6.875 22.8125 C-6.90916016 24.03904297 -6.94332031 25.26558594 -6.97851562 26.52929688 C-7.0610941 29.56110678 -7.13021369 32.59262379 -7.1875 35.625 C-7.5175 35.625 -7.8475 35.625 -8.1875 35.625 C-8.2619389 31.5865943 -8.31623729 27.54845707 -8.35229492 23.50952148 C-8.36733432 22.13705483 -8.38777133 20.76463586 -8.41381836 19.39233398 C-8.45041221 17.41411344 -8.46566698 15.43553486 -8.48046875 13.45703125 C-8.50403442 11.67389526 -8.50403442 11.67389526 -8.52807617 9.85473633 C-8.15124532 6.28119131 -7.34669441 4.46823932 -5.1875 1.625 C-2.1875 -0.375 -2.1875 -0.375 0 0 Z " fill="#5AAFC9" transform="translate(170.1875,163.375)"/>
<path d="M0 0 C0.66 0.66 1.32 1.32 2 2 C1.01 4.64 0.02 7.28 -1 10 C-1.7425 9.814375 -2.485 9.62875 -3.25 9.4375 C-6.00646092 8.99897213 -7.37203973 9.2992106 -10 10 C-10.99 9.67 -11.98 9.34 -13 9 C-12.4375 7.0625 -12.4375 7.0625 -11 5 C-8.66842508 4.65458149 -6.33491639 4.32205743 -4 4 C-1.579887 2.08378425 -1.579887 2.08378425 0 0 Z " fill="#3BA9D0" transform="translate(205,158)"/>
<path d="M0 0 C0.99 0.33 1.98 0.66 3 1 C2.67 1.66 2.34 2.32 2 3 C1.91691418 5.09630495 1.89176255 7.19501974 1.89453125 9.29296875 C1.87970703 10.56333984 1.86488281 11.83371094 1.84960938 13.14257812 C1.81941107 15.82113495 1.81954436 18.49454983 1.83398438 21.17382812 C1.65188859 32.10509305 1.65188859 32.10509305 -2.05078125 36.42578125 C-3.02402344 37.27527344 -3.99726563 38.12476563 -5 39 C-5.99 38.67 -6.98 38.34 -8 38 C-7.01 37.34 -6.02 36.68 -5 36 C-5.33 35.34 -5.66 34.68 -6 34 C-4.68 34 -3.36 34 -2 34 C-0.9024069 26.99426906 -0.91857151 20.14270751 -1 13.0625 C-1.02536854 10.80343179 -1.04644917 8.54430987 -1.0625 6.28515625 C-1.07410156 5.29394775 -1.08570313 4.30273926 -1.09765625 3.28149414 C-1 1 -1 1 0 0 Z " fill="#296CA7" transform="translate(337,298)"/>
<path d="M0 0 C4.9359005 -0.30849378 8.11318265 0.29676655 12.765625 2.19921875 C19.61909807 4.65544599 26.77617916 5.27259701 34 5 C34.495 6.485 34.495 6.485 35 8 C27.20281574 7.82567271 19.98109332 6.44432365 12.4375 4.5625 C11.55674805 4.34505127 10.67599609 4.12760254 9.76855469 3.90356445 C5.98610686 2.92939743 3.29129478 2.19419652 0 0 Z " fill="#52A6C1" transform="translate(192,429)"/>
<path d="M0 0 C1.65 0 3.3 0 5 0 C6 2 6 2 5.5 4.375 C3.43339473 7.99155922 0.83412475 9.4943244 -3 11 C-5.9375 11.25 -5.9375 11.25 -8 11 C-8 10.01 -8 9.02 -8 8 C-6.576875 7.9071875 -6.576875 7.9071875 -5.125 7.8125 C-4.09375 7.544375 -3.0625 7.27625 -2 7 C-0.60333803 4.52409924 0 2.83735815 0 0 Z " fill="#176AB8" transform="translate(352,400)"/>
<path d="M0 0 C0.33 0 0.66 0 1 0 C1.57982329 9.66372146 0.80202639 15.65482698 -5.625 23 C-8 25 -8 25 -10 25 C-9.01 21.535 -9.01 21.535 -8 18 C-6.35 17.67 -4.7 17.34 -3 17 C-2.67 15.02 -2.34 13.04 -2 11 C-1.34 11 -0.68 11 0 11 C0 7.37 0 3.74 0 0 Z " fill="#3B8BB8" transform="translate(271,244)"/>
<path d="M0 0 C0.66 0 1.32 0 2 0 C2.33 0.99 2.66 1.98 3 3 C3.66 3.33 4.32 3.66 5 4 C5 4.66 5 5.32 5 6 C5.66 6 6.32 6 7 6 C7 8.64 7 11.28 7 14 C6.34 14 5.68 14 5 14 C4.67 15.32 4.34 16.64 4 18 C2.25222242 14.94315824 1.6882277 12.49951852 1.4375 9 C1.20465992 5.88279408 0.84402343 3.0133729 0 0 Z " fill="#5CDCE3" transform="translate(65,281)"/>
<path d="M0 0 C0.33 0.66 0.66 1.32 1 2 C-7.25 2 -15.5 2 -24 2 C-24 1.34 -24 0.68 -24 0 C-16.73680917 -2.42106361 -7.4707272 -1.43667831 0 0 Z " fill="#3078AE" transform="translate(328,139)"/>
<path d="M0 0 C0.7425 0.37125 1.485 0.7425 2.25 1.125 C5.28007196 2.44109315 5.28007196 2.44109315 9 0 C9 3.3 9 6.6 9 10 C8.01 10 7.02 10 6 10 C5.67 10.99 5.34 11.98 5 13 C4.35309078 11.3962669 3.70751236 9.79199694 3.0625 8.1875 C2.70285156 7.29417969 2.34320313 6.40085938 1.97265625 5.48046875 C1.26386514 3.6729091 0.6139753 1.84192591 0 0 Z " fill="#2483C2" transform="translate(287,224)"/>
<path d="M0 0 C-0.01160156 0.69867188 -0.02320313 1.39734375 -0.03515625 2.1171875 C-0.04417969 3.02726563 -0.05320312 3.93734375 -0.0625 4.875 C-0.07410156 5.77992188 -0.08570313 6.68484375 -0.09765625 7.6171875 C-0.16249257 10.0168585 -0.16249257 10.0168585 1 12 C0.01 12 -0.98 12 -2 12 C-2.33 12.66 -2.66 13.32 -3 14 C-3 13.34 -3 12.68 -3 12 C-3.66 12 -4.32 12 -5 12 C-5 8.7 -5 5.4 -5 2 C-1 0 -1 0 0 0 Z " fill="#2483C2" transform="translate(293,146)"/>
<path d="M0 0 C2.93230193 1.32120828 4.98664899 2.74638197 7.234375 5.0390625 C8.09482422 5.90917969 8.09482422 5.90917969 8.97265625 6.796875 C9.55917969 7.40015625 10.14570313 8.0034375 10.75 8.625 C11.35199219 9.23601562 11.95398438 9.84703125 12.57421875 10.4765625 C14.05405305 11.97988624 15.52764676 13.48934856 17 15 C15.1875 15.625 15.1875 15.625 13 16 C9.82178295 13.88118863 8.83781147 12.02641205 7.02734375 8.75390625 C5.61055533 6.33513058 4.26568342 4.66594369 2 3 C-1.167832 2.66551741 -1.167832 2.66551741 -4 3 C-2.68 2.01 -1.36 1.02 0 0 Z " fill="#3B83AE" transform="translate(271,287)"/>
<path d="M0 0 C0.33 0.66 0.66 1.32 1 2 C2.19496094 1.97679687 3.38992187 1.95359375 4.62109375 1.9296875 C20.30130573 1.7189054 20.30130573 1.7189054 28 4 C27.67 4.66 27.34 5.32 27 6 C26.34 5.67 25.68 5.34 25 5 C23.02734129 4.86961417 21.05070459 4.79734068 19.07421875 4.75390625 C17.88505859 4.72103516 16.69589844 4.68816406 15.47070312 4.65429688 C12.96037168 4.59338537 10.44995052 4.53605939 7.93945312 4.48242188 C6.74642578 4.44826172 5.55339844 4.41410156 4.32421875 4.37890625 C3.23197998 4.3538501 2.13974121 4.32879395 1.0144043 4.30297852 C-2.01209551 3.99878428 -4.25390011 3.27382594 -7 2 C-7 1.67 -7 1.34 -7 1 C-2.25 0 -2.25 0 0 0 Z " fill="#58AFCC" transform="translate(174,334)"/>
<path d="M0 0 C0.33 0 0.66 0 1 0 C1.14695313 0.60585938 1.29390625 1.21171875 1.4453125 1.8359375 C3.27370804 8.66615071 6.19599212 14.07759252 10 20 C10.33 20.66 10.66 21.32 11 22 C5.25 20.25 5.25 20.25 3 18 C2.27129528 15.68529088 1.60760482 13.3494053 1 11 C0.79375 10.34 0.5875 9.68 0.375 9 C-0.18762011 5.99935943 -0.05851655 3.04286083 0 0 Z " fill="#479EBD" transform="translate(207,257)"/>
<path d="M0 0 C2.125 0.9375 2.125 0.9375 4 2 C4 5.33333333 4 8.66666667 4 12 C4.66 12 5.32 12 6 12 C5.34 13.65 4.68 15.3 4 17 C3.67 17 3.34 17 3 17 C2.72285156 16.09636719 2.44570313 15.19273437 2.16015625 14.26171875 C1.79792969 13.08222656 1.43570312 11.90273437 1.0625 10.6875 C0.70285156 9.51574219 0.34320313 8.34398437 -0.02734375 7.13671875 C-0.66372279 5.08446023 -1.32053379 3.03839863 -2 1 C-1.34 0.67 -0.68 0.34 0 0 Z " fill="#1269BB" transform="translate(356,152)"/>
<path d="M0 0 C0.763125 0.350625 1.52625 0.70125 2.3125 1.0625 C5.04759379 2.32360884 5.04759379 2.32360884 8 1 C8.375 3.25 8.375 3.25 8 6 C4.8680624 8.57514869 3.10589421 10 -1 10 C-1 9.34 -1 8.68 -1 8 C-0.34 7.67 0.32 7.34 1 7 C1.33 6.01 1.66 5.02 2 4 C1.34 4 0.68 4 0 4 C-0.33 3.01 -0.66 2.02 -1 1 C-0.67 0.67 -0.34 0.34 0 0 Z " fill="#0C5EB6" transform="translate(385,368)"/>
<path d="M0 0 C0.75410156 0.00322266 1.50820313 0.00644531 2.28515625 0.00976562 C3.06246094 0.01814453 3.83976562 0.02652344 4.640625 0.03515625 C5.43339844 0.03966797 6.22617187 0.04417969 7.04296875 0.04882812 C8.99222008 0.0605706 10.94143238 0.07850479 12.890625 0.09765625 C6.29458279 3.77413879 -1.66957758 4.42831391 -9.109375 4.09765625 C-8.779375 3.10765625 -8.449375 2.11765625 -8.109375 1.09765625 C-5.41165718 0.07962888 -2.8613733 -0.02167707 0 0 Z " fill="#3C86B5" transform="translate(281.109375,432.90234375)"/>
<path d="M0 0 C-1.01812245 2.0362449 -2.03469612 4.06360955 -3.125 6.0625 C-4.20579336 8.10136548 -4.20579336 8.10136548 -4 11 C-6.5 13.6875 -6.5 13.6875 -9 16 C-8.43215818 10.5487185 -7.17545909 6.04706509 -5 1 C-3 0 -3 0 0 0 Z " fill="#5ADAE4" transform="translate(80,180)"/>
<path d="M0 0 C-3.54065311 3.12410569 -6.53100984 4.57804859 -11 6 C-11.33 6.66 -11.66 7.32 -12 8 C-14.31 8 -16.62 8 -19 8 C-15.46321673 4.94699115 -12.12946439 2.96254995 -7.8125 1.1875 C-6.76707031 0.74792969 -5.72164062 0.30835937 -4.64453125 -0.14453125 C-2 -1 -2 -1 0 0 Z " fill="#55AEC5" transform="translate(180,76)"/>
<path d="M0 0 C3.3 0.99 6.6 1.98 10 3 C10 3.33 10 3.66 10 4 C8.35 4 6.7 4 5 4 C5 4.66 5 5.32 5 6 C1.625 6.125 1.625 6.125 -2 6 C-2.66 5.34 -3.32 4.68 -4 4 C-2.68 2.68 -1.36 1.36 0 0 Z " fill="#41B4D3" transform="translate(167,135)"/>
<path d="M0 0 C-0.99 1.485 -0.99 1.485 -2 3 C-2.66 3 -3.32 3 -4 3 C-4.99 4.485 -4.99 4.485 -6 6 C-6.763125 6.12375 -7.52625 6.2475 -8.3125 6.375 C-11.97824124 7.22749796 -13.53367055 9.25180433 -16 12 C-16.66 11.67 -17.32 11.34 -18 11 C-4.89329556 -2.44664778 -4.89329556 -2.44664778 0 0 Z " fill="#5EBFD0" transform="translate(139,101)"/>
<path d="M0 0 C2.64 0 5.28 0 8 0 C9.05404945 3.98196457 8.84098656 6.98195309 8 11 C6 9 6 9 5.6875 6.5 C5.460625 5.675 5.23375 4.85 5 4 C2.52363988 2.62533375 2.52363988 2.62533375 0 2 C0 1.34 0 0.68 0 0 Z " fill="#57D2DF" transform="translate(87,344)"/>
<path d="M0 0 C0.66 0 1.32 0 2 0 C2.85644743 10.69607681 2.85644743 10.69607681 0.25 14.6875 C-4.61887136 18.15188924 -9.21022789 17.49864066 -15 17 C-15 16.34 -15 15.68 -15 15 C-14.11248047 15.06960938 -14.11248047 15.06960938 -13.20703125 15.140625 C-8.98014382 15.33369653 -6.6751608 15.4219755 -3 13.125 C-0.11934028 10.06429905 0.12100027 8.47001886 0.0625 4.375 C0.05347656 3.55773437 0.04445313 2.74046875 0.03515625 1.8984375 C0.02355469 1.27195312 0.01195312 0.64546875 0 0 Z " fill="#357DAE" transform="translate(303,288)"/>
<path d="M0 0 C3.40053502 1.58691634 6.5779386 3.40981682 9.8125 5.3125 C6.8125 6.3125 6.8125 6.3125 3.8125 5.3125 C2.8225 5.6425 1.8325 5.9725 0.8125 6.3125 C-1.875 4.5 -1.875 4.5 -4.1875 2.3125 C-4.1875 1.6525 -4.1875 0.9925 -4.1875 0.3125 C-2.1875 -0.6875 -2.1875 -0.6875 0 0 Z " fill="#236CAF" transform="translate(334.1875,80.6875)"/>
<path d="M0 0 C5.26964527 2.63482263 8.97903554 6.79943911 13 11 C11.02 11.99 11.02 11.99 9 13 C9 12.34 9 11.68 9 11 C8.34 10.67 7.68 10.34 7 10 C5.65724831 9.01268258 4.32267727 8.01405257 3 7 C3.66 7 4.32 7 5 7 C4.04134491 4.66924071 4.04134491 4.66924071 1 3 C0.67 2.01 0.34 1.02 0 0 Z " fill="#1F60A3" transform="translate(369,104)"/>
<path d="M0 0 C1.32 0.33 2.64 0.66 4 1 C4 1.66 4 2.32 4 3 C5.11375 3.1546875 5.11375 3.1546875 6.25 3.3125 C9.1973519 4.04933797 10.78383074 4.94799142 13 7 C13 7.66 13 8.32 13 9 C12.01 9 11.02 9 10 9 C10 8.34 10 7.68 10 7 C6.7 6.34 3.4 5.68 0 5 C0 3.35 0 1.7 0 0 Z " fill="#156DBB" transform="translate(344,89)"/>
<path d="M0 0 C0.33 0 0.66 0 1 0 C1.02686553 1.97909398 1.04633375 3.95828971 1.0625 5.9375 C1.07410156 7.03964844 1.08570312 8.14179688 1.09765625 9.27734375 C1 12 1 12 0 13 C-0.3931648 14.67884238 -0.74085452 16.36850045 -1.0625 18.0625 C-1.23910156 18.98160156 -1.41570312 19.90070313 -1.59765625 20.84765625 C-1.73042969 21.55792969 -1.86320312 22.26820313 -2 23 C-2.33 23 -2.66 23 -3 23 C-3.48350422 15.10276444 -1.67664721 7.66467297 0 0 Z " fill="#77D8DE" transform="translate(66,205)"/>
<path d="M0 0 C0.99 0 1.98 0 3 0 C2.34 3.63 1.68 7.26 1 11 C-1.64 11 -4.28 11 -7 11 C-7 10.34 -7 9.68 -7 9 C-6.21625 8.814375 -5.4325 8.62875 -4.625 8.4375 C-1.60623658 7.16038373 -1.60623658 7.16038373 -0.6875 3.375 C-0.460625 2.26125 -0.23375 1.1475 0 0 Z " fill="#1666B5" transform="translate(358,197)"/>
<path d="M0 0 C2.64 0.66 5.28 1.32 8 2 C8 3.65 8 5.3 8 7 C6 8 6 8 3.4375 7.4375 C1 6 1 6 0.1875 2.875 C0.125625 1.92625 0.06375 0.9775 0 0 Z " fill="#237FC0" transform="translate(296,161)"/>
<path d="M0 0 C2.25 1.5625 2.25 1.5625 4 3 C1.92446352 3.5534764 0.15634036 4 -2 4 C-3.34882408 4.63474075 -4.6846659 5.29848848 -6 6 C-7 3 -7 3 -7 0 C-3.79780242 -1.06739919 -3.05137926 -1.10959246 0 0 Z " fill="#359DCF" transform="translate(231,290)"/>
<path d="M0 0 C7.9300621 2.91630907 15.40685383 7.63538539 21 14 C15.89867702 12.66393922 12.9785896 10.3860337 9 7 C8.13375 6.67 7.2675 6.34 6.375 6 C3.25000351 4.684212 1.93510198 2.72347687 0 0 Z " fill="#28659E" transform="translate(344,87)"/>
<path d="M0 0 C0 4 0 4 -1.75 6.25 C-4 8 -4 8 -8 8 C-5.73913043 0 -5.73913043 0 0 0 Z " fill="#1974BF" transform="translate(335,328)"/>
<path d="M0 0 C2 2 2 2 2.13525391 4.98095703 C2.08288574 6.22731934 2.03051758 7.47368164 1.9765625 8.7578125 C1.95153656 9.42086395 1.92651062 10.08391541 1.90072632 10.76705933 C1.81848733 12.88689015 1.72191635 15.00579437 1.625 17.125 C1.56676418 18.56115994 1.50946081 19.99735802 1.453125 21.43359375 C1.31290458 24.95623602 1.159824 28.4781866 1 32 C0.67 32 0.34 32 0 32 C-0.19876297 28.16716495 -0.38195792 24.33373312 -0.5625 20.5 C-0.61857422 19.42234375 -0.67464844 18.3446875 -0.73242188 17.234375 C-1.00236528 11.33161245 -0.95594719 5.83481843 0 0 Z " fill="#6EDBE2" transform="translate(62,228)"/>
<path d="M0 0 C1.98 0.66 3.96 1.32 6 2 C5.58997722 13.70615034 5.58997722 13.70615034 1 18 C0.01 17.67 -0.98 17.34 -2 17 C-1.0409375 16.2265625 -1.0409375 16.2265625 -0.0625 15.4375 C2.65393211 12.22717114 2.92796892 10.1778028 3 6 C1.69280737 2.63121229 1.69280737 2.63121229 0 0 Z " fill="#4CA1C0" transform="translate(202,340)"/>
<path d="M0 0 C0.99 0 1.98 0 3 0 C3 1.98 3 3.96 3 6 C2.01 6.495 2.01 6.495 1 7 C0.01 6.67 -0.98 6.34 -2 6 C-2.66 7.65 -3.32 9.3 -4 11 C-4.33 11 -4.66 11 -5 11 C-5.38344159 8.3925972 -5.374232 6.61936847 -3.9921875 4.33203125 C-2.6875 2.6875 -2.6875 2.6875 0 0 Z " fill="#52CEDF" transform="translate(107,128)"/>
<path d="M0 0 C0.66 0.33 1.32 0.66 2 1 C-2.24860632 6.2042199 -6.36629298 10.32084439 -12 14 C-12.33 13.01 -12.66 12.02 -13 11 C-12.01 11 -11.02 11 -10 11 C-10 10.34 -10 9.68 -10 9 C-8.68 8.67 -7.36 8.34 -6 8 C-5.938125 7.236875 -5.87625 6.47375 -5.8125 5.6875 C-5 3 -5 3 -2.5625 1.125 C-1.716875 0.75375 -0.87125 0.3825 0 0 Z " fill="#1C58A2" transform="translate(389,375)"/>
<path d="M0 0 C0.66 0.33 1.32 0.66 2 1 C2.02721176 2.89575251 2.04649136 4.79161979 2.0625 6.6875 C2.07410156 7.74324219 2.08570313 8.79898437 2.09765625 9.88671875 C2.00865425 12.72410262 1.64939838 15.2438919 1 18 C0.01 17.67 -0.98 17.34 -2 17 C-1.855625 16.27554687 -1.71125 15.55109375 -1.5625 14.8046875 C-0.60449608 9.81508377 0.27607149 5.10732262 0 0 Z " fill="#0D4A9E" transform="translate(434,272)"/>
<path d="M0 0 C0.99 0.33 1.98 0.66 3 1 C2.67 3.31 2.34 5.62 2 8 C1.34 8 0.68 8 0 8 C-0.33 8.99 -0.66 9.98 -1 11 C-1.66 11 -2.32 11 -3 11 C-2.69078116 9.54096742 -2.37751201 8.08279278 -2.0625 6.625 C-1.88847656 5.81289062 -1.71445312 5.00078125 -1.53515625 4.1640625 C-1 2 -1 2 0 0 Z " fill="#044EAD" transform="translate(426,189)"/>
<path d="M0 0 C0.99 0.495 0.99 0.495 2 1 C2 1.66 2 2.32 2 3 C2.66 3 3.32 3 4 3 C5.32 6.63 6.64 10.26 8 14 C7.01 14.495 7.01 14.495 6 15 C4.99539469 12.87717331 3.99644398 10.75166979 3 8.625 C2.443125 7.44164062 1.88625 6.25828125 1.3125 5.0390625 C0 2 0 2 0 0 Z " fill="#70D2D8" transform="translate(75,320)"/>
<path d="M0 0 C1.4835001 0.42257276 2.96176424 0.86356322 4.4375 1.3125 C5.67306641 1.67794922 5.67306641 1.67794922 6.93359375 2.05078125 C7.61550781 2.36402344 8.29742187 2.67726563 9 3 C9.33 3.99 9.66 4.98 10 6 C9.01 7.485 9.01 7.485 8 9 C6.66368764 7.6905332 5.33102075 6.37734515 4 5.0625 C3.2575 4.33160156 2.515 3.60070312 1.75 2.84765625 C0 1 0 1 0 0 Z " fill="#2D7DB4" transform="translate(294,279)"/>
<path d="M0 0 C0.66 0.99 1.32 1.98 2 3 C2.7734375 3.7115625 2.7734375 3.7115625 3.5625 4.4375 C5.23257419 6.25279803 5.58605964 7.59914589 6 10 C4.68 10 3.36 10 2 10 C2 9.34 2 8.68 2 8 C1.34 8 0.68 8 0 8 C-0.79953138 4.71303767 -1.09658936 3.28976808 0 0 Z " fill="#4EBDD2" transform="translate(141,197)"/>
<path d="M0 0 C1.9295008 5.98145248 -0.13702768 12.0749079 -2.625 17.625 C-3.07875 18.40875 -3.5325 19.1925 -4 20 C-4.97812873 16.94371936 -5.00835683 15.14722553 -4.00390625 12.109375 C-3.77509766 11.40039062 -3.54628906 10.69140625 -3.31054688 9.9609375 C-3.06369141 9.23132813 -2.81683594 8.50171875 -2.5625 7.75 C-2.19801758 6.63238281 -2.19801758 6.63238281 -1.82617188 5.4921875 C-1.22667019 3.65841765 -0.61455513 1.82877996 0 0 Z " fill="#76D2DA" transform="translate(72,185)"/>
<path d="M0 0 C1.32 0 2.64 0 4 0 C4 0.99 4 1.98 4 3 C5.32 3.33 6.64 3.66 8 4 C7.67 5.98 7.34 7.96 7 10 C6.34 9.34 5.68 8.68 5 8 C4.01 8.495 4.01 8.495 3 9 C3 6.69 3 4.38 3 2 C2.01 1.67 1.02 1.34 0 1 C0 0.67 0 0.34 0 0 Z " fill="#43B7D4" transform="translate(160,296)"/>
<path d="M0 0 C3.11257569 0 5.10765685 0.17361624 8 1 C7.01 1.495 7.01 1.495 6 2 C6 2.99 6 3.98 6 5 C4.35 5.33 2.7 5.66 1 6 C0.01 4.68 -0.98 3.36 -2 2 C-1.34 1.34 -0.68 0.68 0 0 Z " fill="#1261B4" transform="translate(371,385)"/>
<path d="M0 0 C1.46953125 -0.03867187 1.46953125 -0.03867187 2.96875 -0.078125 C3.8040625 0.03015625 4.639375 0.1384375 5.5 0.25 C6.16 1.24 6.82 2.23 7.5 3.25 C6.91992188 3.14300781 6.33984375 3.03601563 5.7421875 2.92578125 C0.35595601 2.09918137 -2.73166607 2.19337569 -7.5 5.25 C-7.5 3.93 -7.5 2.61 -7.5 1.25 C-4.90541894 -0.04729053 -2.89552402 0.0457188 0 0 Z " fill="#286BA5" transform="translate(347.5,292.75)"/>
<path d="M0 0 C2.47186455 2.96346786 3.66248361 5.54041689 4.6875 9.25 C4.93886719 10.14203125 5.19023437 11.0340625 5.44921875 11.953125 C5.72185547 12.96632812 5.72185547 12.96632812 6 14 C5.34 14 4.68 14 4 14 C0.55064383 9.72279835 0.3336727 5.28123341 0 0 Z " fill="#164C96" transform="translate(423,176)"/>
<path d="M0 0 C-0.33 1.32 -0.66 2.64 -1 4 C-2.32 3.67 -3.64 3.34 -5 3 C-5.33 4.32 -5.66 5.64 -6 7 C-6.66 5.02 -7.32 3.04 -8 1 C-5.29120665 -0.35439668 -2.99066732 -0.06501451 0 0 Z " fill="#46BDD8" transform="translate(153,145)"/>
<path d="M0 0 C4.60272162 1.77027754 7.7129243 3.18699218 11 7 C10.01 7.66 9.02 8.32 8 9 C6.29159719 7.36587557 5.06546953 6.13093906 4 4 C1.97536745 3.34786708 1.97536745 3.34786708 0 3 C0 2.01 0 1.02 0 0 Z " fill="#39A2CF" transform="translate(208,274)"/>
<path d="M0 0 C-1.65 1.65 -3.3 3.3 -5 5 C-5.99 4.67 -6.98 4.34 -8 4 C-8.6875 1.9375 -8.6875 1.9375 -9 0 C-3.375 -1.125 -3.375 -1.125 0 0 Z " fill="#439EC4" transform="translate(224,216)"/>
<path d="M0 0 C0.66 0 1.32 0 2 0 C2 0.99 2 1.98 2 3 C3.65 3.33 5.3 3.66 7 4 C6.34 5.32 5.68 6.64 5 8 C3.02 7.01 1.04 6.02 -1 5 C-0.67 3.35 -0.34 1.7 0 0 Z " fill="#3AA8D0" transform="translate(200,136)"/>
<path d="M0 0 C2.29199177 0.14063135 4.58359186 0.28765943 6.875 0.4375 C8.15117187 0.51871094 9.42734375 0.59992188 10.7421875 0.68359375 C14 1 14 1 16 2 C16 2.66 16 3.32 16 4 C14.08249714 3.91256669 12.16593335 3.8043811 10.25 3.6875 C9.18265625 3.62949219 8.1153125 3.57148438 7.015625 3.51171875 C3.8178932 2.96909846 2.37401309 2.14928855 0 0 Z " fill="#489FC3" transform="translate(211,433)"/>
<path d="M0 0 C0.99 0 1.98 0 3 0 C3.68707555 2.49064888 4 4.37886292 4 7 C3.01 7.33 2.02 7.66 1 8 C-1 5 -1 5 -0.625 2.3125 C-0.41875 1.549375 -0.2125 0.78625 0 0 Z " fill="#59D8E4" transform="translate(76,315)"/>
<path d="M0 0 C0.125 3.375 0.125 3.375 0 7 C-0.66 7.66 -1.32 8.32 -2 9 C-4 8 -4 8 -4.6875 6.125 C-5 4 -5 4 -4 1 C-1 0 -1 0 0 0 Z " fill="#044EAB" transform="translate(429,302)"/>
<path d="M0 0 C0.33 0.66 0.66 1.32 1 2 C2.32 2 3.64 2 5 2 C5.33 1.34 5.66 0.68 6 0 C6 0.66 6 1.32 6 2 C6.66 2 7.32 2 8 2 C8 2.99 8 3.98 8 5 C5.69 5.33 3.38 5.66 1 6 C0.67 4.02 0.34 2.04 0 0 Z " fill="#2280C5" transform="translate(296,136)"/>
<path d="M0 0 C3.63 0.66 7.26 1.32 11 2 C10.34 2.66 9.68 3.32 9 4 C6 4 3 4 0 4 C0 2.68 0 1.36 0 0 Z " fill="#2281C5" transform="translate(293,68)"/>
<path d="M0 0 C0.66 0.33 1.32 0.66 2 1 C1.44271087 4.34373475 0.64826111 7.03312999 -1 10 C-1.66 9.67 -2.32 9.34 -3 9 C-2.67 7.68 -2.34 6.36 -2 5 C-2.66 4.67 -3.32 4.34 -4 4 C-3.34 4 -2.68 4 -2 4 C-2 3.34 -2 2.68 -2 2 C-1.34 2 -0.68 2 0 2 C0 1.34 0 0.68 0 0 Z " fill="#0751AF" transform="translate(420,322)"/>
<path d="M0 0 C1.32 0 2.64 0 4 0 C4 1.65 4 3.3 4 5 C1.69 5 -0.62 5 -3 5 C-1.125 1.125 -1.125 1.125 0 0 Z " fill="#1B73BA" transform="translate(332,136)"/>
<path d="M0 0 C0.598125 0.20625 1.19625 0.4125 1.8125 0.625 C1.173125 0.8725 0.53375 1.12 -0.125 1.375 C-2.38645007 2.42188294 -2.38645007 2.42188294 -2.75 4.6875 C-2.9665625 5.6465625 -2.9665625 5.6465625 -3.1875 6.625 C-4.1775 6.955 -5.1675 7.285 -6.1875 7.625 C-5.875 4.75 -5.875 4.75 -5.1875 1.625 C-2.1875 -0.375 -2.1875 -0.375 0 0 Z " fill="#4DB2CB" transform="translate(170.1875,163.375)"/>
<path d="M0 0 C0.66 0 1.32 0 2 0 C3.00496852 3.01490557 3.10335303 5.04181692 3.0625 8.1875 C3.05347656 9.08855469 3.04445313 9.98960937 3.03515625 10.91796875 C3.02355469 11.60503906 3.01195312 12.29210937 3 13 C2.01 12.67 1.02 12.34 0 12 C0 10.68 0 9.36 0 8 C0.66 8 1.32 8 2 8 C1.34 5.36 0.68 2.72 0 0 Z " fill="#054BAB" transform="translate(432,211)"/>
<path d="M0 0 C0.99 0 1.98 0 3 0 C2.01 2.97 1.02 5.94 0 9 C-0.99 8.01 -1.98 7.02 -3 6 C-2.34 5.01 -1.68 4.02 -1 3 C-0.67 2.01 -0.34 1.02 0 0 Z " fill="#41B5D0" transform="translate(167,192)"/>
<path d="M0 0 C0.66 0.33 1.32 0.66 2 1 C1.5 2.875 1.5 2.875 0 5 C-2.65177645 5.98494554 -5.20547307 6.45912382 -8 7 C-5.42215154 4.35247996 -3.08351902 2.05567935 0 0 Z " fill="#5DB6C9" transform="translate(150,89)"/>
<path d="M0 0 C0.433125 0.45375 0.86625 0.9075 1.3125 1.375 C3.10798342 3.20024334 3.10798342 3.20024334 6 5 C6 5.99 6 6.98 6 8 C4.02 7.34 2.04 6.68 0 6 C0 4.02 0 2.04 0 0 Z " fill="#1776C2" transform="translate(328,80)"/>
<path d="M0 0 C2.97 0.495 2.97 0.495 6 1 C6 1.66 6 2.32 6 3 C8.97 3.495 8.97 3.495 12 4 C11.67 4.66 11.34 5.32 11 6 C6.95743617 4.77782954 3.50711041 3.37245704 0 1 C0 0.67 0 0.34 0 0 Z " fill="#59B3C9" transform="translate(154,412)"/>
<path d="M0 0 C1.7074998 1.28062485 3.37373596 2.61767557 5 4 C5 4.66 5 5.32 5 6 C3.35 6.33 1.7 6.66 0 7 C-0.38133299 5.0085944 -0.71325582 3.00720923 -1 1 C-0.67 0.67 -0.34 0.34 0 0 Z " fill="#1673BF" transform="translate(337,408)"/>
<path d="M0 0 C1.9375 0.75 1.9375 0.75 4 2 C4.75 4.125 4.75 4.125 5 6 C2 6 2 6 0.3125 4.5 C-0.120625 4.005 -0.55375 3.51 -1 3 C-0.67 2.01 -0.34 1.02 0 0 Z " fill="#4EC6DE" transform="translate(123,384)"/>
<path d="M0 0 C2.66666667 0 5.33333333 0 8 0 C8 0.66 8 1.32 8 2 C7.34 2.66 6.68 3.32 6 4 C6.33 4.66 6.66 5.32 7 6 C4.525 5.01 4.525 5.01 2 4 C2 3.34 2 2.68 2 2 C1.34 2 0.68 2 0 2 C0 1.34 0 0.68 0 0 Z " fill="#3BA8D0" transform="translate(200,336)"/>
<path d="M0 0 C2.78637633 4.1795645 1.79562512 6.14668677 1 11 C0.01 11 -0.98 11 -2 11 C-1.34 7.37 -0.68 3.74 0 0 Z " fill="#2364A4" transform="translate(358,329)"/>
<path d="M0 0 C0.66 0.33 1.32 0.66 2 1 C2 1.99 2 2.98 2 4 C1.34 4 0.68 4 0 4 C0.66 5.98 1.32 7.96 2 10 C-0.52588702 7.63707344 -1.88820837 6.33537489 -3 3 C-2.34 3 -1.68 3 -1 3 C-0.67 2.01 -0.34 1.02 0 0 Z " fill="#5AD7DE" transform="translate(84,328)"/>
<path d="M0 0 C1.43088528 2.86177057 0.59991697 4.93375773 0 8 C-0.99 8 -1.98 8 -3 8 C-3.66 6.35 -4.32 4.7 -5 3 C-3.35 2.01 -1.7 1.02 0 0 Z " fill="#49C0DB" transform="translate(141,296)"/>
<path d="M0 0 C0 1.32 0 2.64 0 4 C-2.64 4.33 -5.28 4.66 -8 5 C-5.61809092 1.42713639 -4.38130682 0 0 0 Z " fill="#1F74B8" transform="translate(333,416)"/>
<path d="M0 0 C0.99 0.33 1.98 0.66 3 1 C2.34 1 1.68 1 1 1 C1 1.66 1 2.32 1 3 C1.99 3 2.98 3 4 3 C4 2.34 4 1.68 4 1 C4.99 1.33 5.98 1.66 7 2 C5.02 3.32 3.04 4.64 1 6 C0.34 5.67 -0.32 5.34 -1 5 C-0.67 3.35 -0.34 1.7 0 0 Z " fill="#1168BB" transform="translate(362,392)"/>
<path d="M0 0 C-2.26605454 2.0142707 -3.49138261 2.96278409 -6.5625 3.1875 C-7.366875 3.125625 -8.17125 3.06375 -9 3 C-9.99 3 -10.98 3 -12 3 C-11 1 -11 1 -9.00390625 0.33203125 C-8.19824219 0.16058594 -7.39257812 -0.01085937 -6.5625 -0.1875 C-5.75941406 -0.36667969 -4.95632813 -0.54585938 -4.12890625 -0.73046875 C-2 -1 -2 -1 0 0 Z " fill="#2A6EA6" transform="translate(340,357)"/>
<path d="M0 0 C0.66 0 1.32 0 2 0 C2.66 2.97 3.32 5.94 4 9 C1 8 1 8 -0.25 6.1875 C-1.11637742 3.66056586 -0.88492145 2.47778006 0 0 Z " fill="#3380AF" transform="translate(292,346)"/>
<path d="M0 0 C0.99 0 1.98 0 3 0 C2.38461538 6.52307692 2.38461538 6.52307692 0.4375 8.9375 C-0.036875 9.288125 -0.51125 9.63875 -1 10 C-1.33 8.02 -1.66 6.04 -2 4 C-1.34 3.67 -0.68 3.34 0 3 C0 2.01 0 1.02 0 0 Z " fill="#1052A3" transform="translate(413,336)"/>
<path d="M0 0 C1.65 0 3.3 0 5 0 C5 0.99 5 1.98 5 3 C4.34 3 3.68 3 3 3 C3 3.66 3 4.32 3 5 C2.01 5.33 1.02 5.66 0 6 C0 4.02 0 2.04 0 0 Z " fill="#47C1D9" transform="translate(136,160)"/>
<path d="M0 0 C0.66 0.33 1.32 0.66 2 1 C-0.97 4.96 -0.97 4.96 -4 9 C-4.33 7.68 -4.66 6.36 -5 5 C-4.01 4.67 -3.02 4.34 -2 4 C-1.67 3.01 -1.34 2.02 -1 1 C-0.67 0.67 -0.34 0.34 0 0 Z " fill="#1D5798" transform="translate(398,364)"/>
<path d="M0 0 C3.24208567 0.35049575 4.61527704 0.56221181 6.8125 3.0625 C7.204375 3.701875 7.59625 4.34125 8 5 C5.69 4.67 3.38 4.34 1 4 C0.67 2.68 0.34 1.36 0 0 Z " fill="#2C82B6" transform="translate(280,298)"/>
<path d="M0 0 C0.66 0.66 1.32 1.32 2 2 C1.01 3.98 0.02 5.96 -1 8 C-1.66 7.67 -2.32 7.34 -3 7 C-2.25 2.25 -2.25 2.25 0 0 Z " fill="#39A3D4" transform="translate(212,222)"/>
<path d="M0 0 C3.465 1.98 3.465 1.98 7 4 C4.64046906 6.35953094 3.22104383 6.49141413 0 7 C0 4.69 0 2.38 0 0 Z " fill="#45BBD6" transform="translate(152,352)"/>
<path d="M0 0 C0.99 0.66 1.98 1.32 3 2 C2.67 2.66 2.34 3.32 2 4 C-2.29 3.67 -6.58 3.34 -11 3 C-11 2.67 -11 2.34 -11 2 C-7.37 2 -3.74 2 0 2 C0 1.34 0 0.68 0 0 Z " fill="#388FBF" transform="translate(256,203)"/>
<path d="M0 0 C0.66 0 1.32 0 2 0 C2.66 2.31 3.32 4.62 4 7 C2.35 6.67 0.7 6.34 -1 6 C-0.67 4.02 -0.34 2.04 0 0 Z " fill="#0756AF" transform="translate(409,153)"/>
<path d="M0 0 C-0.99 0.33 -1.98 0.66 -3 1 C-3 1.66 -3 2.32 -3 3 C-5.64 3 -8.28 3 -11 3 C-3.71428571 -1.85714286 -3.71428571 -1.85714286 0 0 Z " fill="#53A8C8" transform="translate(191,72)"/>
<path d="M0 0 C1.32 0.33 2.64 0.66 4 1 C4 2.32 4 3.64 4 5 C4.66 5.33 5.32 5.66 6 6 C5.01 6.33 4.02 6.66 3 7 C2.67 5.35 2.34 3.7 2 2 C1.34 2 0.68 2 0 2 C0 1.34 0 0.68 0 0 Z " fill="#52C9DE" transform="translate(116,379)"/>
<path d="M0 0 C0.66 0 1.32 0 2 0 C2 1.65 2 3.3 2 5 C0.68 5.33 -0.64 5.66 -2 6 C-2 3 -2 3 0 0 Z " fill="#3BA7CD" transform="translate(206,353)"/>
<path d="M0 0 C0.99 0 1.98 0 3 0 C3 2.97 3 5.94 3 9 C2.34 9 1.68 9 1 9 C0.67 6.03 0.34 3.06 0 0 Z " fill="#2382C1" transform="translate(293,238)"/>
<path d="M0 0 C0.99 0.33 1.98 0.66 3 1 C3 3.31 3 5.62 3 8 C2.34 8 1.68 8 1 8 C0.34 5.69 -0.32 3.38 -1 1 C-0.67 0.67 -0.34 0.34 0 0 Z " fill="#2484BF" transform="translate(284,216)"/>
<path d="M0 0 C3 1 3 1 4 3 C4.0396713 4.66619446 4.04384447 6.33391013 4 8 C3.34 8 2.68 8 2 8 C2 7.34 2 6.68 2 6 C1.34 6 0.68 6 0 6 C0 4.02 0 2.04 0 0 Z " fill="#196FBA" transform="translate(340,137)"/>
<path d="M0 0 C0.66 0 1.32 0 2 0 C2 1.65 2 3.3 2 5 C0.68 5 -0.64 5 -2 5 C-1.34 3.35 -0.68 1.7 0 0 Z " fill="#125BAA" transform="translate(391,369)"/>
<path d="M0 0 C2.31 0.33 4.62 0.66 7 1 C5.1875 2.5625 5.1875 2.5625 3 4 C2.01 3.67 1.02 3.34 0 3 C0 2.01 0 1.02 0 0 Z " fill="#419DC3" transform="translate(226,209)"/>
<path d="" fill="#FFFFFF" transform="translate(0,0)"/>
<path d="" fill="#FFFFFF" transform="translate(0,0)"/>
<path d="" fill="#FFFFFF" transform="translate(0,0)"/>
<path d="" fill="#FFFFFF" transform="translate(0,0)"/>
<path d="" fill="#FFFFFF" transform="translate(0,0)"/>
<path d="" fill="#FFFFFF" transform="translate(0,0)"/>
<path d="" fill="#FFFFFF" transform="translate(0,0)"/>
<path d="" fill="#FFFFFF" transform="translate(0,0)"/>
<path d="" fill="#FFFFFF" transform="translate(0,0)"/>
<path d="" fill="#FFFFFF" transform="translate(0,0)"/>
<path d="" fill="#FFFFFF" transform="translate(0,0)"/>
<path d="" fill="#FFFFFF" transform="translate(0,0)"/>
<path d="" fill="#FFFFFF" transform="translate(0,0)"/>
<path d="" fill="#FFFFFF" transform="translate(0,0)"/>
<path d="" fill="#FFFFFF" transform="translate(0,0)"/>
<path d="" fill="#FFFFFF" transform="translate(0,0)"/>
<path d="" fill="#FFFFFF" transform="translate(0,0)"/>
<path d="" fill="#FFFFFF" transform="translate(0,0)"/>
<path d="" fill="#FFFFFF" transform="translate(0,0)"/>
<path d="" fill="#FFFFFF" transform="translate(0,0)"/>
<path d="" fill="#FFFFFF" transform="translate(0,0)"/>
<path d="" fill="#FFFFFF" transform="translate(0,0)"/>
<path d="" fill="#FFFFFF" transform="translate(0,0)"/>
<path d="" fill="#FFFFFF" transform="translate(0,0)"/>
<path d="" fill="#FFFFFF" transform="translate(0,0)"/>
<path d="" fill="#FFFFFF" transform="translate(0,0)"/>
<path d="" fill="#FFFFFF" transform="translate(0,0)"/>
<path d="" fill="#FFFFFF" transform="translate(0,0)"/>
<path d="" fill="#FFFFFF" transform="translate(0,0)"/>
<path d="" fill="#FFFFFF" transform="translate(0,0)"/>
<path d="" fill="#FFFFFF" transform="translate(0,0)"/>
<path d="" fill="#FFFFFF" transform="translate(0,0)"/>
<path d="" fill="#FFFFFF" transform="translate(0,0)"/>
<path d="" fill="#FFFFFF" transform="translate(0,0)"/>
<path d="" fill="#FFFFFF" transform="translate(0,0)"/>
<path d="" fill="#FFFFFF" transform="translate(0,0)"/>
<path d="" fill="#FFFFFF" transform="translate(0,0)"/>
<path d="" fill="#FFFFFF" transform="translate(0,0)"/>
<path d="" fill="#FFFFFF" transform="translate(0,0)"/>
<path d="" fill="#FFFFFF" transform="translate(0,0)"/>
<path d="" fill="#FFFFFF" transform="translate(0,0)"/>
<path d="" fill="#FFFFFF" transform="translate(0,0)"/>
<path d="" fill="#FFFFFF" transform="translate(0,0)"/>
<path d="" fill="#FFFFFF" transform="translate(0,0)"/>
<path d="" fill="#FFFFFF" transform="translate(0,0)"/>
<path d="" fill="#FFFFFF" transform="translate(0,0)"/>
<path d="" fill="#FFFFFF" transform="translate(0,0)"/>
<path d="" fill="#FFFFFF" transform="translate(0,0)"/>
<path d="" fill="#FFFFFF" transform="translate(0,0)"/>
<path d="" fill="#FFFFFF" transform="translate(0,0)"/>
</svg>
